<svg width="42" height="15" viewBox="0 0 42 15" fill="none" xmlns="http://www.w3.org/2000/svg">
<path d="M2.97796 1.77163L3.78594 3.69017H2.17459L2.97796 1.77163Z" fill="#006FCF"/>
<path d="M21.5857 2.92626C21.4235 3.02221 21.2316 3.0254 21.0018 3.0254H19.5677V1.95646H21.0213C21.227 1.95646 21.4417 1.96546 21.5811 2.04327C21.7343 2.11338 21.829 2.2626 21.829 2.46872C21.829 2.67906 21.7389 2.84831 21.5857 2.92626Z" fill="#006FCF"/>
<path d="M30.9994 1.77163L31.8163 3.69017H30.187L30.9994 1.77163Z" fill="#006FCF"/>
<path fill-rule="evenodd" clip-rule="evenodd" d="M0 6.71209H2.01713L2.47192 5.64314H3.49009L3.94369 6.71209H7.91226V5.89485L8.2665 6.71557H10.3267L10.6809 5.88266V6.71209H20.5436L20.539 4.95742H20.7298C20.8634 4.96192 20.9024 4.97397 20.9024 5.18895V6.71209H26.0034V6.30361C26.4149 6.51844 27.0548 6.71209 27.8969 6.71209H30.0429L30.5022 5.64314H31.5203L31.9695 6.71209H36.1049V5.69671L36.7311 6.71209H40.045V0H36.7654V0.792705L36.3061 0H32.9409V0.792705L32.5191 0H27.9735C27.2126 0 26.5437 0.103497 26.0034 0.391925V0H22.8665V0.391925C22.5227 0.0946427 22.0542 0 21.5333 0H10.073L9.30404 1.73362L8.51438 0H4.90466V0.792705L4.50812 0H1.42961L0 3.19129V6.71209ZM17.5692 5.76681H13.6257V0.954254H17.5692V1.95642H14.8062V2.82388H17.5029V3.81037H14.8062V4.77146H17.5692V5.76681ZM11.5357 5.76681H12.7457V0.954256H10.7803L9.36109 4.219L7.81617 0.954256H5.88946V5.51075L3.88172 0.954256H2.12781L0.0138488 5.76681H1.29599L1.7542 4.69337H4.21212L4.66572 5.76681H7.06673V1.99431L8.78296 5.76681H9.81945L11.5312 1.99765L11.5357 5.76681ZM23.1294 2.25037C23.1294 3.01767 22.6039 3.4141 22.2976 3.53313C22.5559 3.62893 22.7765 3.79818 22.8816 3.93841C23.0483 4.17777 23.077 4.39159 23.077 4.8214V5.76681H21.8863L21.8819 5.15991C21.8819 5.13055 21.8822 5.09989 21.8825 5.06825C21.8851 4.78778 21.8885 4.43039 21.6955 4.22233C21.523 4.05308 21.2601 4.01636 20.8351 4.01636H19.5678V5.76681H18.3875V0.954256H21.1026C21.7059 0.954256 22.1504 0.969788 22.5321 1.18477C22.9056 1.39975 23.1294 1.71358 23.1294 2.25037ZM25.0186 5.76681H23.8141V0.954254H25.0186V5.76681ZM38.9927 5.76681H37.3198L35.0822 2.15471V5.76681H32.6781L32.2187 4.69337H29.7664L29.3207 5.76681H27.9394C27.3656 5.76681 26.6391 5.64314 26.2276 5.23452C25.8128 4.8259 25.5969 4.27241 25.5969 3.39726C25.5969 2.68352 25.7259 2.03104 26.2333 1.51544C26.6149 1.13135 27.2126 0.954256 28.0261 0.954256H29.1689V1.98546H28.0501C27.6193 1.98546 27.376 2.04787 27.1417 2.27055C26.9404 2.47319 26.8023 2.85626 26.8023 3.36068C26.8023 3.87628 26.9075 4.24803 27.1269 4.49088C27.3087 4.68132 27.6389 4.73909 27.9497 4.73909H28.4798L30.1436 0.954402H31.9124L33.9111 5.5064V0.954402H35.7085L37.7836 4.30609V0.954402H38.9927V5.76681Z" fill="#006FCF"/>
<path d="M26.056 11.3143C26.2857 11.3143 26.481 11.3065 26.6389 11.2152C26.7919 11.125 26.8834 10.9591 26.8834 10.7531C26.8834 10.5472 26.7919 10.3981 26.6389 10.3201C26.4961 10.2375 26.2857 10.2332 26.0755 10.2332H24.6219V11.3143H26.056Z" fill="#006FCF"/>
<path d="M16.3647 11.6527L18.1771 13.6135V9.75417L16.3647 11.6527Z" fill="#006FCF"/>
<path d="M10.5941 13.0481H13.4965L14.8449 11.6358L13.5537 10.233H10.5941V11.1082H13.1857V12.0903H10.5941V13.0481Z" fill="#006FCF"/>
<path d="M19.3529 11.459H20.8784C21.332 11.459 21.6142 11.2397 21.6142 10.8234C21.6142 10.4024 21.3183 10.2332 20.8921 10.2332H19.3529V11.459Z" fill="#006FCF"/>
<path fill-rule="evenodd" clip-rule="evenodd" d="M42 13.4355C41.7132 13.8441 41.1545 14.0513 40.398 14.0513H38.1183V13.019H40.3888C40.614 13.019 40.7716 12.9901 40.8665 12.8999C40.9488 12.8254 41.0061 12.7173 41.0061 12.5859C41.0061 12.4457 40.9488 12.3343 40.8619 12.2676C40.7763 12.1941 40.6516 12.1607 40.446 12.1607C40.3735 12.1583 40.2998 12.1564 40.2254 12.1544C39.1626 12.1263 37.9547 12.0945 37.9547 10.6708C37.9547 9.97261 38.4097 9.23768 39.6484 9.23768H41.9999V8.27993H39.8151C39.1558 8.27993 38.6769 8.4338 38.3377 8.67302V8.27993H35.1062C34.5895 8.27993 33.9829 8.40477 33.696 8.67302V8.27993H27.9254V8.67302C27.4661 8.35019 26.6912 8.27993 26.3335 8.27993H22.5272V8.67302C22.1639 8.33016 21.3559 8.27993 20.8634 8.27993H16.6035L15.6286 9.30794L14.7156 8.27993H8.35215V14.9967H14.5959L15.6003 13.9524L16.5465 14.9967L20.3952 15V13.42H20.7736C21.2842 13.4277 21.8865 13.4076 22.4178 13.1838V14.9965H25.5923V13.2459H25.7454C25.9409 13.2459 25.9601 13.2538 25.9601 13.4441V14.9964H35.6035C36.2157 14.9964 36.8557 14.8437 37.21 14.5666V14.9964H40.2689C40.9054 14.9964 41.527 14.9094 42 14.6868V13.4355ZM37.2911 11.5124C37.5209 11.7442 37.6441 12.0369 37.6441 12.5323C37.6441 13.5679 36.9802 14.0512 35.7897 14.0512H33.4904V13.019H35.7804C36.0043 13.019 36.1631 12.9901 36.2626 12.8998C36.3438 12.8254 36.4021 12.7172 36.4021 12.5859C36.4021 12.4456 36.3391 12.3343 36.258 12.2675C36.1677 12.1941 36.0432 12.1607 35.8376 12.1607C35.7653 12.1583 35.6919 12.1564 35.6176 12.1544C34.5585 12.1263 33.3511 12.0943 33.3511 10.6708C33.3511 9.9726 33.8013 9.23767 35.0389 9.23767H37.4055V10.2622H35.24C35.0253 10.2622 34.8858 10.27 34.767 10.3491C34.6377 10.4271 34.5898 10.5428 34.5898 10.6955C34.5898 10.8771 34.6995 11.0006 34.8481 11.054C34.9726 11.0963 35.1064 11.1086 35.3075 11.1086L35.943 11.1253C36.5838 11.1405 37.0237 11.2485 37.2911 11.5124ZM27.3519 11.8142C27.6146 11.9087 27.8294 12.0781 27.9301 12.2183C28.0968 12.4533 28.121 12.6727 28.1257 13.097V14.0512H26.9406V13.449C26.9406 13.4201 26.9408 13.3898 26.9411 13.3584C26.9438 13.0758 26.9473 12.7083 26.7497 12.5068C26.5772 12.3343 26.3143 12.2931 25.8837 12.2931H24.6221V14.0512H23.4359V9.23753H26.1613C26.759 9.23753 27.1942 9.26322 27.5817 9.4647C27.9543 9.68403 28.1886 9.98451 28.1886 10.5336C28.1884 11.302 27.6626 11.694 27.3519 11.8142ZM28.8431 9.23752H32.7831V10.233H30.0188V11.1082H32.7156V12.0903H30.0188V13.0481L32.7831 13.0524V14.0512H28.8431V9.23752ZM22.8816 10.8234C22.8816 12.1606 21.8577 12.4367 20.8259 12.4367H19.3529V14.0512H17.0584L15.6048 12.4577L14.0941 14.0512H9.41813V9.23752H14.1661L15.6185 10.8154L17.1201 9.23752H20.8921C21.829 9.23752 22.8816 9.49024 22.8816 10.8234Z" fill="#006FCF"/>
<path d="M39.8485 10.2619H42V11.6316C41.9981 11.6292 41.9962 11.6268 41.9943 11.6244L41.9881 11.6165L41.9849 11.6125L41.9848 11.6123C41.9577 11.5776 41.9309 11.5434 41.8905 11.5124C41.6277 11.2487 41.1968 11.1405 40.5512 11.125L39.9114 11.1083C39.7147 11.1083 39.581 11.096 39.4564 11.0537C39.3034 11.0003 39.1983 10.8768 39.1983 10.6952C39.1983 10.5425 39.2462 10.4268 39.3708 10.3488C39.491 10.2697 39.6337 10.2619 39.8485 10.2619Z" fill="#006FCF"/>
</svg>
