<svg width="95" height="73" viewBox="0 0 95 73" fill="none" xmlns="http://www.w3.org/2000/svg">
<path d="M89.1813 10.8835H83.7427V5.46177C83.7386 4.02485 83.164 2.64845 82.1451 1.63267C81.1261 0.616892 79.7454 0.0440666 78.304 0.0400391H13.0402C11.5988 0.0440731 10.2181 0.616913 9.19916 1.63267C8.18022 2.64845 7.6056 4.02485 7.60156 5.46177V36.185C7.60156 37.183 8.41332 37.9923 9.41445 37.9923C10.4156 37.9923 11.2273 37.183 11.2273 36.185V5.46177C11.2273 4.46375 12.0391 3.65452 13.0402 3.65452H78.3041C78.7848 3.65452 79.2461 3.84493 79.586 4.18378C79.9259 4.52264 80.1169 4.98253 80.1169 5.46177V48.8358C80.1169 49.315 79.9259 49.7749 79.586 50.1138C79.2461 50.4526 78.7848 50.643 78.3041 50.643H38.4206C37.4195 50.643 36.6077 51.4523 36.6077 52.4503C36.6077 53.4483 37.4195 54.2575 38.4206 54.2575H78.3041C79.7455 54.2535 81.1262 53.6806 82.1451 52.6649C83.164 51.6491 83.7387 50.2727 83.7427 48.8358V43.414H90.9942V59.6793C90.9942 60.1585 90.8032 60.6184 90.4633 60.9573C90.1234 61.2961 89.6621 61.4865 89.1814 61.4865H36.6077C35.6066 61.4865 34.7948 62.2958 34.7948 63.2938C34.7948 64.2918 35.6066 65.101 36.6077 65.101H89.1814C90.6227 65.097 92.0034 64.5242 93.0224 63.5084C94.0413 62.4926 94.6159 61.1162 94.62 59.6793V16.3053C94.6159 14.8684 94.0413 13.492 93.0224 12.4762C92.0034 11.4604 90.6227 10.8876 89.1814 10.8836L89.1813 10.8835ZM90.9942 28.956H83.7427V14.498H89.1813C89.6621 14.498 90.1234 14.6884 90.4633 15.0273C90.8032 15.3661 90.9942 15.826 90.9942 16.3053V28.956Z" fill="#00A19D"/>
<path d="M60.1753 25.3415H45.6723C44.6711 25.3415 43.8594 26.1508 43.8594 27.1488C43.8594 28.1468 44.6711 28.956 45.6723 28.956H60.1753C61.1765 28.956 61.9882 28.1468 61.9882 27.1488C61.9882 26.1508 61.1765 25.3415 60.1753 25.3415Z" fill="#00A19D"/>
<path d="M74.6787 28.956C75.6798 28.956 76.4916 28.1468 76.4916 27.1488C76.4916 26.1508 75.6798 25.3415 74.6787 25.3415H67.4271C66.426 25.3415 65.6143 26.1508 65.6143 27.1488C65.6143 28.1468 66.426 28.956 67.4271 28.956H74.6787Z" fill="#00A19D"/>
<path d="M29.3564 27.1488C29.3564 27.628 29.5474 28.0879 29.8874 28.4268C30.2273 28.7656 30.6886 28.956 31.1693 28.956H38.4209C39.422 28.956 40.2338 28.1468 40.2338 27.1488C40.2338 26.1508 39.422 25.3415 38.4209 25.3415H31.1693C30.1682 25.3415 29.3564 26.1508 29.3564 27.1488Z" fill="#00A19D"/>
<path d="M16.6664 28.956H23.9179C24.9191 28.956 25.7308 28.1468 25.7308 27.1488C25.7308 26.1508 24.9191 25.3415 23.9179 25.3415H16.6664C15.6653 25.3415 14.8535 26.1508 14.8535 27.1488C14.8535 28.1468 15.6653 28.956 16.6664 28.956Z" fill="#00A19D"/>
<path d="M20.2922 7.26904H27.5437C30.5471 7.26904 32.9824 10.2631 32.9824 12.6908V16.3053C32.9824 19.2993 30.5471 21.727 27.5437 21.727H20.2922C17.2888 21.727 14.8535 18.733 14.8535 16.3053V12.6908C14.8535 9.69675 17.2888 7.26904 20.2922 7.26904Z" fill="#00A19D"/>
<path d="M16.6661 39.7995C12.3385 39.7995 8.18839 41.5132 5.12907 44.5636C2.06892 47.6135 0.350098 51.7507 0.350098 56.0648C0.350098 60.3788 2.0691 64.5161 5.12907 67.5659C8.18839 70.6165 12.3385 72.33 16.6661 72.33C20.9936 72.33 25.1437 70.6164 28.203 67.5659C31.2632 64.5161 32.982 60.3788 32.982 56.0648C32.9755 51.7532 31.2541 47.6199 28.1956 44.5711C25.1371 41.5221 20.9911 39.8061 16.6661 39.7995ZM14.8532 63.2938C14.8532 62.5628 15.2951 61.9036 15.9725 61.6245C16.6499 61.3445 17.4292 61.4986 17.948 62.0158C18.4668 62.533 18.6214 63.3099 18.3405 63.9852C18.0605 64.6605 17.3993 65.101 16.6661 65.101C15.6649 65.101 14.8532 64.2918 14.8532 63.2938ZM18.4789 57.872C18.4789 58.87 17.6672 59.6793 16.6661 59.6793C15.6649 59.6793 14.8532 58.87 14.8532 57.872V48.8358C14.8532 47.8378 15.6649 47.0285 16.6661 47.0285C17.6672 47.0285 18.4789 47.8378 18.4789 48.8358V57.872Z" fill="#00A19D"/>
<path d="M60.1755 32.5705C57.8204 32.5673 55.6101 33.7049 54.2489 35.6203C52.8868 37.5365 52.5437 39.9916 53.3279 42.2064C54.1113 44.4203 55.9258 46.1171 58.192 46.7559C60.4582 47.3947 62.895 46.8971 64.7257 45.4198C66.1525 46.5703 67.9646 47.1391 69.7953 47.0108C71.626 46.8826 73.3392 46.0669 74.5907 44.7283C75.8419 43.3906 76.5379 41.6294 76.5379 39.7996C76.5379 37.9698 75.8419 36.2084 74.5907 34.8709C73.3394 33.5324 71.626 32.7166 69.7953 32.5884C67.9646 32.4601 66.1526 33.0289 64.7257 34.1794C63.4364 33.1434 61.8315 32.5763 60.1756 32.5706L60.1755 32.5705ZM62.5322 42.5282C61.8799 43.0978 61.0423 43.4124 60.1755 43.4141C58.8798 43.4141 57.6828 42.725 57.0354 41.6068C56.3879 40.4886 56.3879 39.1105 57.0354 37.9923C57.6828 36.8741 58.8798 36.1851 60.1755 36.1851C61.0423 36.1867 61.8799 36.5013 62.5322 37.0709C61.8071 38.8185 61.8071 40.7807 62.5322 42.5282V42.5282Z" fill="#00A19D"/>
</svg>
