<svg width="351" height="214" viewBox="0 0 351 214" fill="none" xmlns="http://www.w3.org/2000/svg">
<path d="M336.5 214H14.5C6.5 214 0 207.5 0 199.5V14.5C0 6.5 6.5 0 14.5 0H336.5C344.5 0 351 6.5 351 14.5V199.5C351 207.5 344.5 214 336.5 214Z" fill="#C4C4C4"/>
<path d="M351 33H0V79H351V33Z" fill="black"/>
<path d="M258 91H28V121H258V91Z" fill="white"/>
<path d="M301.6 104.3H260.6V120.9H301.6V104.3Z" fill="white"/>
<path d="M276.575 117.39C275.954 117.39 275.425 117.221 274.988 116.883C274.551 116.543 274.218 116.049 273.987 115.404C273.756 114.755 273.641 113.972 273.641 113.055C273.641 112.143 273.756 111.364 273.987 110.718C274.22 110.07 274.555 109.575 274.992 109.234C275.432 108.891 275.959 108.719 276.575 108.719C277.19 108.719 277.716 108.891 278.153 109.234C278.593 109.575 278.928 110.07 279.159 110.718C279.392 111.364 279.509 112.143 279.509 113.055C279.509 113.972 279.394 114.755 279.163 115.404C278.932 116.049 278.598 116.543 278.162 116.883C277.725 117.221 277.196 117.39 276.575 117.39ZM276.575 116.484C277.19 116.484 277.668 116.187 278.009 115.593C278.35 115 278.52 114.154 278.52 113.055C278.52 112.324 278.442 111.702 278.285 111.188C278.131 110.674 277.909 110.282 277.618 110.013C277.329 109.744 276.981 109.609 276.575 109.609C275.965 109.609 275.488 109.91 275.145 110.512C274.801 111.111 274.63 111.958 274.63 113.055C274.63 113.786 274.707 114.406 274.86 114.917C275.014 115.428 275.235 115.817 275.524 116.084C275.815 116.35 276.165 116.484 276.575 116.484Z" fill="black"/>
<path d="M283.828 117.39C283.207 117.39 282.678 117.221 282.242 116.883C281.805 116.543 281.471 116.049 281.24 115.404C281.009 114.755 280.894 113.972 280.894 113.055C280.894 112.143 281.009 111.364 281.24 110.718C281.474 110.07 281.809 109.575 282.246 109.234C282.685 108.891 283.213 108.719 283.828 108.719C284.444 108.719 284.97 108.891 285.407 109.234C285.846 109.575 286.181 110.07 286.412 110.718C286.646 111.364 286.762 112.143 286.762 113.055C286.762 113.972 286.647 114.755 286.416 115.404C286.185 116.049 285.852 116.543 285.415 116.883C284.978 117.221 284.449 117.39 283.828 117.39ZM283.828 116.484C284.444 116.484 284.922 116.187 285.262 115.593C285.603 115 285.773 114.154 285.773 113.055C285.773 112.324 285.695 111.702 285.538 111.188C285.385 110.674 285.162 110.282 284.871 110.013C284.582 109.744 284.235 109.609 283.828 109.609C283.218 109.609 282.742 109.91 282.398 110.512C282.055 111.111 281.883 111.958 281.883 113.055C281.883 113.786 281.96 114.406 282.114 114.917C282.268 115.428 282.489 115.817 282.777 116.084C283.068 116.35 283.419 116.484 283.828 116.484Z" fill="black"/>
<path d="M291.081 117.39C290.461 117.39 289.932 117.221 289.495 116.883C289.058 116.543 288.724 116.049 288.493 115.404C288.263 114.755 288.147 113.972 288.147 113.055C288.147 112.143 288.263 111.364 288.493 110.718C288.727 110.07 289.062 109.575 289.499 109.234C289.939 108.891 290.466 108.719 291.081 108.719C291.697 108.719 292.223 108.891 292.66 109.234C293.099 109.575 293.435 110.07 293.665 110.718C293.899 111.364 294.016 112.143 294.016 113.055C294.016 113.972 293.9 114.755 293.67 115.404C293.439 116.049 293.105 116.543 292.668 116.883C292.231 117.221 291.702 117.39 291.081 117.39ZM291.081 116.484C291.697 116.484 292.175 116.187 292.516 115.593C292.856 115 293.027 114.154 293.027 113.055C293.027 112.324 292.948 111.702 292.792 111.188C292.638 110.674 292.415 110.282 292.124 110.013C291.836 109.744 291.488 109.609 291.081 109.609C290.472 109.609 289.995 109.91 289.651 110.512C289.308 111.111 289.136 111.958 289.136 113.055C289.136 113.786 289.213 114.406 289.367 114.917C289.521 115.428 289.742 115.817 290.031 116.084C290.322 116.35 290.672 116.484 291.081 116.484Z" fill="black"/>
</svg>
