<svg width="55" height="20" viewBox="0 0 55 20" fill="none" xmlns="http://www.w3.org/2000/svg">
<path d="M15.8353 11.1098C15.274 13.8149 12.8374 15.8489 9.91692 15.8489C9.24687 15.8489 8.60191 15.7415 8.00014 15.5437L6.65869 19.4792C7.68243 19.8157 8.77777 19.9977 9.91692 19.9977C14.8811 19.9977 19.0219 16.5388 19.9762 11.9424L15.8353 11.1098Z" fill="#EC412A"/>
<path fill-rule="evenodd" clip-rule="evenodd" d="M39.9054 2.22198V13.6012L41.9477 14.4197L40.9815 16.6641L38.9619 15.8524C38.5078 15.662 38.2004 15.3719 37.967 15.0443C37.7427 14.709 37.5765 14.2508 37.5765 13.6325V2.22198H39.9054ZM24.4163 10.6794C24.467 7.42524 27.2386 4.82765 30.6017 4.8775C33.4561 4.92078 35.8212 6.85389 36.4424 9.425L25.4024 13.9872C24.7611 13.0393 24.3966 11.8989 24.4163 10.6794ZM26.9423 11.136C26.9272 10.9995 26.9165 10.8595 26.9205 10.7182C26.9522 8.80076 28.5839 7.27075 30.5654 7.30252C31.6439 7.31645 32.6015 7.79403 33.2489 8.53319L26.9423 11.136ZM33.0165 13.2482C32.3511 13.8741 31.4488 14.2554 30.4526 14.2417C29.7697 14.2307 29.137 14.033 28.599 13.7036L27.2654 15.7585C28.1787 16.3168 29.2557 16.6471 30.4168 16.6645C32.1068 16.6888 33.6472 16.0468 34.7673 14.9868L33.0165 13.2482ZM48.4052 7.30274C48.0074 7.30274 47.6251 7.36491 47.2679 7.48085L46.4732 5.17817C47.0797 4.98233 47.7293 4.87594 48.4052 4.87594C51.3549 4.87594 53.8156 6.90207 54.3798 9.59356L51.9199 10.0785C51.5884 8.49449 50.1408 7.30274 48.4052 7.30274ZM44.3663 15.1853L46.0285 13.3679C45.2861 12.7324 44.8186 11.8043 44.8186 10.7698C44.8186 9.73638 45.2861 8.80874 46.0278 8.17373L44.3644 6.35632C43.1033 7.43615 42.3088 9.014 42.3088 10.7698C42.3088 12.5278 43.1039 14.1051 44.3663 15.1853ZM48.4051 14.2388C50.1391 14.2388 51.5865 13.048 51.9199 11.4663L54.3791 11.9534C53.8121 14.642 51.3521 16.6653 48.4051 16.6653C47.7286 16.6653 47.0783 16.5586 46.4701 16.3618L47.2666 14.06C47.6244 14.1756 48.007 14.2388 48.4051 14.2388Z" fill="black"/>
<path d="M3.06883 17.7757L5.54895 14.5738C4.44189 13.4541 3.74316 11.8196 3.74316 9.99756C3.74316 8.17693 4.44124 6.54234 5.54797 5.42357L3.06655 2.22198C1.18543 4.12419 0 6.90281 0 9.99756C0 13.0939 1.18716 15.8735 3.06883 17.7757Z" fill="#1BA7DE"/>
<path d="M7.99824 4.45011C8.59995 4.25285 9.24365 4.14576 9.91343 4.14576C12.8365 4.14576 15.2747 6.18237 15.834 8.88786L19.9762 8.05943C19.0257 3.46128 14.8821 0 9.91343 0C8.77584 0 7.68085 0.181775 6.65869 0.516629L7.99824 4.45011Z" fill="#FECA2F"/>
</svg>
