<svg width="437" height="368" viewBox="0 0 437 368" fill="none" xmlns="http://www.w3.org/2000/svg">
<path d="M0 183.853C0 285.223 82.4741 367.688 183.844 367.688C213.035 367.688 242.226 360.612 268.278 347.241C272.321 345.157 273.917 340.2 271.843 336.156C269.759 332.113 264.802 330.517 260.758 332.592C237.03 344.775 210.428 351.213 183.844 351.213C91.563 351.213 16.4664 276.134 16.4664 183.835C16.4664 91.5364 91.5541 16.4576 183.844 16.4576C268.393 16.4576 339.81 79.6365 349.963 163.414C350.513 167.927 354.618 171.155 359.123 170.597C363.636 170.047 366.846 165.959 366.305 161.446C355.15 69.4038 276.702 0 183.835 0C82.4741 0.00886722 0 82.4829 0 183.844V183.853Z" fill="#00A19D"/>
<path d="M291.732 224.456C295.589 224.456 298.825 221.796 299.721 218.214C299.721 218.214 304.749 201.047 304.678 183.853C304.447 117.216 250.472 63.0017 183.835 63.0017C117.198 63.0017 63.0015 117.216 63.0015 183.853C63.0015 250.49 117.207 304.696 183.844 304.696C184.944 304.696 186.052 304.66 187.143 304.483C191.629 303.756 194.352 299.526 193.616 295.03C192.889 290.552 188.331 287.449 183.835 288.238C126.287 288.238 79.459 241.419 79.459 183.862C79.459 126.305 126.278 79.477 183.835 79.477C241.392 79.477 288.211 126.305 288.211 183.862C288.211 193.979 286.81 203.822 284.052 213.133C283.716 214.17 283.485 215.367 283.485 216.236C283.485 220.767 287.174 224.456 291.723 224.456H291.732Z" fill="#00A19D"/>
<path d="M111.204 134.312C105.902 142.088 101.894 150.592 99.3133 159.628C98.063 163.999 100.599 168.557 104.971 169.798C105.724 170.02 106.487 170.118 107.241 170.118C110.823 170.118 114.122 167.759 115.15 164.15C117.243 156.817 120.488 149.9 124.798 143.596C127.36 139.845 126.403 134.72 122.643 132.157C118.892 129.577 113.767 130.552 111.204 134.312V134.312Z" fill="#00A19D"/>
<path d="M135.411 110.45C131.616 112.959 130.57 118.076 133.088 121.853C134.667 124.247 137.291 125.551 139.969 125.551C141.521 125.551 143.099 125.116 144.5 124.185C156.178 116.471 169.79 112.383 183.862 112.383C188.411 112.383 192.1 108.694 192.1 104.145C192.1 99.5966 188.42 95.9078 183.862 95.9078C166.544 95.9078 149.794 100.936 135.42 110.432L135.411 110.45Z" fill="#00A19D"/>
<path d="M216.901 296.476C227.507 306.008 240.355 313.004 254.525 316.418C255.758 316.719 257.026 316.764 258.294 316.87C264.847 317.438 270.424 311.975 272.171 309.111C286.571 285.498 288.85 256.174 278.263 230.654C267.684 205.134 245.312 186.025 218.427 179.543C211.741 177.912 204.363 180.989 200.781 186.85C186.389 210.463 184.323 239.708 194.689 265.307C202.111 283.645 216.316 296.041 216.901 296.476V296.476ZM214.56 195.549C236.347 200.807 254.472 216.28 263.055 236.95C270.202 254.17 270.007 273.492 263.046 290.543L239.096 232.827C237.358 228.624 232.534 226.628 228.34 228.375C224.137 230.113 222.151 234.928 223.889 239.122L247.83 296.839C230.841 289.736 217.034 276.223 209.887 259.003C201.313 238.333 203.157 214.56 214.552 195.54L214.56 195.549Z" fill="#00A19D"/>
<path d="M298.648 367.91C300.945 367.91 303.241 366.943 304.864 365.081C307.844 361.641 307.48 356.445 304.048 353.456C299.73 349.714 297.256 344.527 297.052 338.843C296.875 333.966 298.418 329.346 301.406 325.604L301.433 325.569C302.452 325.915 303.41 326.402 304.492 326.571C310.362 327.493 316.365 327.954 322.324 327.954C352.96 327.954 381.761 316.028 403.414 294.365C429.236 268.535 441.277 231.55 435.62 195.434C434.352 187.364 427.835 180.838 419.748 179.57C413.86 178.648 407.857 178.187 401.907 178.187C371.288 178.187 342.497 190.104 320.825 211.767C295.004 237.597 282.962 274.582 288.619 310.699C288.814 311.922 289.338 313.013 289.754 314.148C283.68 321.118 280.284 330.136 280.603 339.42C280.958 349.555 285.578 359.211 293.257 365.879C294.818 367.236 296.742 367.901 298.657 367.901L298.648 367.91ZM332.459 223.427C351.009 204.886 375.678 194.671 401.898 194.671C407.006 194.671 412.158 195.07 417.194 195.859C418.24 196.019 419.189 196.959 419.349 198.005C424.199 228.943 413.887 260.625 391.772 282.74C371.847 302.665 344.261 312.871 316.427 311.222C319.052 308.508 380.431 246.411 380.431 246.411C383.641 243.184 383.632 237.97 380.422 234.76C377.203 231.559 371.989 231.559 368.788 234.769C368.788 234.769 306.877 297.469 304.137 300.271C302.027 271.905 312.224 243.662 332.468 223.419L332.459 223.427Z" fill="#00A19D"/>
</svg>
