<svg width="53" height="53" viewBox="0 0 53 53" fill="none" xmlns="http://www.w3.org/2000/svg">
<path d="M15.8946 33.3674L16.2711 34.4108C17.3469 37.3907 20.1977 39.3916 23.3712 39.3916C23.9198 39.3916 24.3716 38.9398 24.3716 38.3912C24.3716 37.8425 23.9198 37.3907 23.3712 37.3907C21.0475 37.3907 18.9498 35.9169 18.1537 33.7224L17.7557 32.6251C21.9404 27.0204 23.0377 19.8128 20.6817 13.1968C18.3796 6.74226 13.0546 1.83678 6.4279 0.0725357C5.52426 -0.164132 4.50229 0.190869 3.95365 0.95466C-0.0589392 6.51635 -1.08091 13.6917 1.22122 20.1462C3.58789 26.7945 9.05276 31.6999 15.8946 33.3674ZM5.57805 2.138C5.63184 2.06269 5.7179 2.01966 5.86851 2.01966C5.87927 2.01966 5.90078 2.01966 5.91154 2.01966C11.9035 3.61179 16.7229 8.05469 18.7992 13.8853C20.7786 19.4255 20.0363 25.4175 16.9058 30.3014L14.5929 23.9007L17.1317 18.6725C17.3684 18.1776 17.164 17.5752 16.6692 17.3385C16.1743 17.1018 15.5719 17.3062 15.3352 17.8011L13.6463 21.2758L12.3338 17.6397L14.4638 13.143C14.7005 12.6482 14.4854 12.0458 13.9905 11.8091C13.4957 11.5724 12.8932 11.7876 12.6566 12.2824L11.3764 14.9826L9.36473 9.41015C9.18185 8.89378 8.60094 8.62484 8.08458 8.80772C7.56821 8.9906 7.29927 9.57151 7.48215 10.0879L9.73049 16.3165L6.13745 14.6168C5.6426 14.3802 5.04017 14.5953 4.8035 15.0902C4.56684 15.585 4.78199 16.1874 5.27684 16.4241L10.7094 18.9952L12.0541 22.7066L9.37549 21.4372C8.88064 21.2005 8.27821 21.4156 8.04155 21.9105C7.80488 22.4053 8.02003 23.0078 8.51488 23.2444L13.0116 25.3745L15.0448 31.0222C9.48307 29.2364 5.0832 25.041 3.09304 19.4685C1.01682 13.6486 1.94198 7.16181 5.57805 2.138Z" fill="#00A19D"/>
<path d="M23.5645 44.7383C23.6291 44.6092 23.6506 44.4586 23.6936 44.3187L25.318 44.039V52.3762C25.318 52.7097 25.587 52.9786 25.9205 52.9894L26.5552 53.0001C32.4181 53.0001 37.969 51.1176 42.6163 47.5568C49.2215 42.5115 52.9974 34.8413 52.9974 26.5364C52.9974 25.9555 52.9113 24.4925 52.9113 24.4602C52.7715 22.5453 52.4165 20.6197 51.8356 18.7479C49.0063 9.51786 41.3576 2.57919 31.9017 0.653581C30.8582 0.416913 26.8564 0.104942 26.4368 0.0941849C25.8129 0.0941849 25.318 0.599793 25.318 1.22373V42.0166L23.3601 42.3501C23.2741 42.2318 23.2095 42.1027 23.102 42.0059C19.8209 38.8108 15.1951 37.3801 10.6769 38.1439C6.16948 38.9184 2.26446 41.823 0.242032 45.9324C-0.209788 46.8468 -0.0161505 47.9333 0.715367 48.6541C3.41553 51.2789 6.95479 52.7204 10.6984 52.7204C11.5053 52.7204 12.3336 52.6451 13.1404 52.516C17.6371 51.7415 21.5421 48.8369 23.5645 44.7383ZM27.319 20.8456C28.2118 20.4046 28.9434 19.9635 29.5673 19.4794C31.6112 17.9303 34.021 18.3176 35.3979 19.3396C35.9573 19.7591 37.1944 20.9317 36.5167 22.7497C35.8175 24.6215 34.9246 25.2993 33.9779 26.0093C32.7515 26.9344 31.4821 27.8919 31.224 30.947C31.1056 32.3778 30.5247 33.5289 29.5781 34.1743C28.9326 34.6154 28.158 34.7875 27.3297 34.7014L27.319 20.8456ZM41.8202 45.6312C41.3792 45.4806 41.0457 45.3515 40.7552 45.2116C39.5396 44.6307 38.4638 43.0171 38.2487 41.4572C38.1519 40.7365 38.2057 39.7252 39.0125 39.0475C41.5835 36.8637 43.2187 33.6687 45.1658 28.8708C46.0587 26.6655 48.8772 25.9232 50.9857 25.6866C50.9965 25.977 50.9965 26.2675 50.9965 26.5364C51.0072 34.0345 47.6616 40.9624 41.8202 45.6312ZM48.9525 16.7147C48.4899 16.2844 47.7584 15.6605 46.5105 14.703C42.5195 11.6694 40.7122 11.5295 39.3998 11.422C39.077 11.4004 38.8081 11.3789 38.5069 11.2713C36.4952 10.5829 35.6346 9.98043 36.1294 8.45285C36.8287 6.38739 35.3011 5.08572 34.1931 4.13905C33.6444 3.67647 33.2356 3.29995 32.9667 2.9342C40.1313 4.88132 45.9942 9.95892 48.9525 16.7147ZM30.6753 2.4501C30.8367 3.91314 31.9662 4.88132 32.9022 5.67739C34.1285 6.72088 34.4728 7.15118 34.2361 7.83967C33.0312 11.5188 36.5382 12.7236 37.8614 13.1754C37.8614 13.1754 38.8511 13.3906 39.2491 13.4229C40.3249 13.5089 41.7879 13.6273 45.3057 16.2952C47.3927 17.898 47.9305 18.479 48.178 18.7586C48.6083 19.2212 50.0606 19.7806 50.0606 19.7806C50.4263 21.0608 50.6845 22.3732 50.8351 23.6856C48.221 23.9761 44.6064 24.9658 43.3263 28.1178C41.4975 32.6252 39.9914 35.6051 37.7323 37.5199C36.5705 38.5096 36.0541 39.9942 36.28 41.7154C36.5813 43.9637 38.0658 46.1475 39.9054 47.0189C39.9054 47.0189 34.0102 50.9347 27.319 50.9885V36.6916C27.4588 36.7024 27.5986 36.7239 27.7385 36.7239C28.8143 36.7239 29.8255 36.4119 30.7076 35.8095C32.1491 34.8198 33.042 33.1523 33.2141 31.1084C33.397 28.9461 34.107 28.4082 35.1828 27.6014C36.2155 26.8269 37.4849 25.8694 38.3885 23.449C39.1738 21.3405 38.4854 19.1567 36.592 17.7367C34.6341 16.2844 31.224 15.7142 28.3517 17.898C28.0505 18.1347 27.7062 18.3606 27.3297 18.5865V2.10586C27.7277 2.11662 29.9653 2.32101 30.6753 2.4501ZM12.7962 50.5366C8.90191 51.2036 4.93235 49.9665 2.1031 47.2125C1.99552 47.1157 1.96325 46.9328 2.0278 46.8038C3.77053 43.2753 7.13766 40.7795 11.0104 40.1125C11.7097 39.9942 12.4089 39.9296 13.1081 39.9296C15.9912 39.9296 18.7236 40.9301 20.9397 42.7589L9.55813 44.706C9.00949 44.8028 8.64373 45.3192 8.74055 45.8571C8.82661 46.3412 9.24616 46.6854 9.73025 46.6854C9.78404 46.6854 9.83783 46.6747 9.90237 46.6747L21.2732 44.7383C19.4229 47.7827 16.3354 49.9342 12.7962 50.5366Z" fill="#00A19D"/>
</svg>
