<svg width="300" height="230" viewBox="0 0 300 230" fill="none" xmlns="http://www.w3.org/2000/svg">
<path d="M282.608 34.6032H265.312V17.3065C265.299 12.7223 263.471 8.33125 260.231 5.09066C256.99 1.85007 252.599 0.0226146 248.015 0.00976562H40.4539C35.8698 0.0226351 31.4787 1.85014 28.2381 5.09066C24.9975 8.33125 23.1701 12.7223 23.1572 17.3065V115.321C23.1572 118.505 25.7389 121.087 28.9228 121.087C32.1067 121.087 34.6884 118.505 34.6884 115.321V17.3065C34.6884 14.1225 37.2701 11.5409 40.454 11.5409H248.015C249.544 11.5409 251.011 12.1483 252.092 13.2294C253.173 14.3104 253.781 15.7776 253.781 17.3065V155.681C253.781 157.209 253.173 158.677 252.092 159.758C251.011 160.839 249.544 161.446 248.015 161.446H121.172C117.988 161.446 115.407 164.028 115.407 167.212C115.407 170.396 117.988 172.977 121.172 172.977H248.015C252.599 172.964 256.99 171.137 260.231 167.896C263.471 164.656 265.299 160.265 265.312 155.681V138.384H288.374V190.274C288.374 191.803 287.767 193.27 286.686 194.351C285.605 195.432 284.137 196.04 282.609 196.04H115.407C112.223 196.04 109.641 198.621 109.641 201.805C109.641 204.989 112.223 207.571 115.407 207.571H282.609C287.193 207.558 291.584 205.73 294.824 202.49C298.065 199.249 299.892 194.858 299.905 190.274V51.9001C299.892 47.316 298.065 42.9249 294.824 39.6843C291.584 36.4437 287.193 34.6163 282.609 34.6034L282.608 34.6032ZM288.374 92.2591H265.312V46.1344H282.608C284.137 46.1344 285.605 46.7418 286.686 47.8229C287.767 48.9039 288.374 50.3711 288.374 51.9V92.2591Z" fill="#00A19D"/>
<path d="M52 126C23.3386 126 0 149.338 0 178C0 206.661 23.3386 230 52 230C80.7126 230 104 206.661 104 178C104 149.338 80.7126 126 52 126ZM83.2205 163.055L46.2677 199.956C45.3465 200.929 44.0158 201.441 42.7874 201.441C41.5591 201.441 40.2795 200.929 39.3071 199.956L20.8307 181.48C18.8858 179.535 18.8858 176.413 20.8307 174.468C22.7756 172.523 25.8976 172.523 27.8425 174.468L42.7874 189.413L76.2087 155.992C78.1535 154.047 81.2756 154.047 83.2205 155.992C85.1654 157.988 85.1654 161.11 83.2205 163.055Z" fill="#00A19D"/>
</svg>
