<svg width="300" height="230" viewBox="0 0 300 230" fill="none" xmlns="http://www.w3.org/2000/svg">
<path d="M282.607 34.4984H265.305V17.2492C265.292 12.6776 263.464 8.29863 260.222 5.06694C256.981 1.83525 252.588 0.0128137 248.002 0H40.3725C35.7869 0.0128341 31.3943 1.83532 28.1527 5.06694C24.911 8.29863 23.0829 12.6776 23.0701 17.2492V114.995C23.0701 118.17 25.6526 120.745 28.8376 120.745C32.0225 120.745 34.6051 118.17 34.6051 114.995V17.2492C34.6051 14.074 37.1876 11.4994 40.3726 11.4994H248.003C249.532 11.4994 251 12.1052 252.081 13.1833C253.162 14.2614 253.77 15.7245 253.77 17.2492V155.243C253.77 156.768 253.162 158.231 252.081 159.309C251 160.387 249.532 160.993 248.003 160.993H121.118C117.933 160.993 115.35 163.568 115.35 166.743C115.35 169.918 117.933 172.492 121.118 172.492H248.003C252.588 172.48 256.981 170.657 260.222 167.425C263.464 164.194 265.292 159.815 265.305 155.243V137.994H288.375V189.742C288.375 191.266 287.767 192.73 286.686 193.808C285.605 194.886 284.137 195.492 282.608 195.492H115.35C112.165 195.492 109.582 198.066 109.582 201.241C109.582 204.416 112.165 206.991 115.35 206.991H282.608C287.193 206.978 291.586 205.156 294.827 201.924C298.069 198.692 299.897 194.313 299.91 189.742V51.7478C299.897 47.1763 298.069 42.7973 294.827 39.5656C291.586 36.3339 287.193 34.5114 282.608 34.4986L282.607 34.4984ZM288.375 91.9959H265.305V45.9979H282.607C284.137 45.9979 285.604 46.6037 286.686 47.6818C287.767 48.7599 288.375 50.223 288.375 51.7477V91.9959Z" fill="#00A19D"/>
<path d="M190.327 80.4965H144.187C141.002 80.4965 138.42 83.071 138.42 86.2462C138.42 89.4214 141.002 91.996 144.187 91.996H190.327C193.512 91.996 196.095 89.4214 196.095 86.2462C196.095 83.071 193.512 80.4965 190.327 80.4965Z" fill="#00A19D"/>
<path d="M236.467 91.996C239.652 91.996 242.235 89.4214 242.235 86.2462C242.235 83.071 239.652 80.4965 236.467 80.4965H213.397C210.212 80.4965 207.63 83.071 207.63 86.2462C207.63 89.4214 210.212 91.996 213.397 91.996H236.467Z" fill="#00A19D"/>
<path d="M92.2798 86.2462C92.2798 87.7709 92.8874 89.234 93.9688 90.3121C95.0502 91.3902 96.5179 91.996 98.0473 91.996H121.117C124.302 91.996 126.885 89.4214 126.885 86.2462C126.885 83.071 124.302 80.4965 121.117 80.4965H98.0473C94.8623 80.4965 92.2798 83.071 92.2798 86.2462Z" fill="#00A19D"/>
<path d="M51.9076 91.996H74.9776C78.1626 91.996 80.7451 89.4214 80.7451 86.2462C80.7451 83.071 78.1626 80.4965 74.9776 80.4965H51.9076C48.7227 80.4965 46.1401 83.071 46.1401 86.2462C46.1401 89.4214 48.7227 91.996 51.9076 91.996Z" fill="#00A19D"/>
<path d="M63.4426 22.999H86.5126C96.0676 22.999 103.815 32.5246 103.815 40.2483V51.7478C103.815 61.2733 96.0676 68.997 86.5126 68.997H63.4426C53.8877 68.997 46.1401 59.4715 46.1401 51.7478V40.2483C46.1401 30.7227 53.8877 22.999 63.4426 22.999Z" fill="#00A19D"/>
<path d="M51.9075 126.495C38.14 126.495 24.9367 131.947 15.2038 141.652C5.46825 151.354 0 164.517 0 178.242C0 191.967 5.46884 205.13 15.2038 214.833C24.9367 224.539 38.14 229.99 51.9075 229.99C65.675 229.99 78.8783 224.538 88.6112 214.833C98.3467 205.13 103.815 191.967 103.815 178.242C103.794 164.525 98.3179 151.375 88.5875 141.675C78.8572 131.975 65.6671 126.516 51.9075 126.495ZM46.14 201.241C46.14 198.916 47.5458 196.819 49.7009 195.93C51.856 195.04 54.3355 195.53 55.9859 197.175C57.6364 198.821 58.1282 201.293 57.2347 203.441C56.3438 205.59 54.2402 206.991 51.9075 206.991C48.7225 206.991 46.14 204.416 46.14 201.241ZM57.675 183.992C57.675 187.167 55.0925 189.742 51.9075 189.742C48.7225 189.742 46.14 187.167 46.14 183.992V155.243C46.14 152.068 48.7225 149.494 51.9075 149.494C55.0925 149.494 57.675 152.068 57.675 155.243V183.992Z" fill="#00A19D"/>
<path d="M190.327 103.496C182.835 103.485 175.803 107.105 171.472 113.198C167.139 119.295 166.047 127.106 168.542 134.152C171.035 141.195 176.807 146.594 184.017 148.626C191.227 150.659 198.979 149.075 204.803 144.375C209.342 148.036 215.107 149.845 220.931 149.437C226.756 149.029 232.206 146.434 236.187 142.175C240.168 137.92 242.382 132.316 242.382 126.495C242.382 120.673 240.168 115.069 236.187 110.814C232.207 106.556 226.756 103.96 220.931 103.552C215.107 103.144 209.342 104.954 204.803 108.614C200.701 105.318 195.595 103.514 190.327 103.496L190.327 103.496ZM197.825 135.176C195.75 136.988 193.085 137.989 190.327 137.994C186.205 137.994 182.397 135.802 180.337 132.244C178.277 128.687 178.277 124.302 180.337 120.745C182.397 117.187 186.205 114.995 190.327 114.995C193.085 115 195.75 116.001 197.825 117.814C195.518 123.373 195.518 129.616 197.825 135.176V135.176Z" fill="#00A19D"/>
</svg>
