<svg width="43" height="59" viewBox="0 0 43 59" fill="none" xmlns="http://www.w3.org/2000/svg">
<path d="M21.389 48.323C27.2862 48.3115 32.0557 43.5167 32.05 37.6096C32.05 36.14 31.745 34.6877 31.1582 33.3449L31.1697 33.3391L22.2923 14.275L16.9187 16.7877L25.5429 35.3159L25.5257 35.3216L25.6523 35.5867C26.7626 37.9496 25.7501 40.7735 23.3854 41.8857C21.0266 42.998 18.2075 41.9837 17.0971 39.6151C16.0269 37.3387 16.9245 34.6243 19.1337 33.4314L19.3696 33.3046L16.8669 27.9277L16.6023 28.0602C11.3322 30.6882 9.18049 37.1255 11.8098 42.4044C13.6796 46.1504 17.4653 48.323 21.389 48.323Z" fill="#00A19D"/>
<path d="M40.4094 27.8066L27.4644 0L22.0908 2.51268L29.0408 17.4505L29.0293 17.4447L35.2947 30.9072C38.9883 38.6066 35.7492 47.8447 28.0628 51.5388C20.3763 55.2329 11.1537 51.9941 7.46586 44.2947C6.46479 42.2085 5.94123 39.9205 5.94123 37.598C5.93548 33.5927 7.48888 29.743 10.2735 26.8615L10.4116 26.7174L7.77654 21.0581L7.48888 21.3002C-1.48631 28.9881 -2.54492 42.5081 5.13001 51.4985C12.8049 60.4888 26.3022 61.5492 35.2774 53.8613C42.82 47.4298 44.943 36.6356 40.4094 27.8066Z" fill="#00A19D"/>
</svg>
