<svg width="25" height="25" viewBox="0 0 25 25" fill="none" xmlns="http://www.w3.org/2000/svg">
<path d="M4.5479 22.1193V20.8318C4.55546 20.7235 4.53983 20.6149 4.50208 20.5131C4.46433 20.4113 4.4053 20.3188 4.32896 20.2416C4.25261 20.1644 4.16068 20.1044 4.05932 20.0656C3.95795 20.0268 3.84947 20.01 3.74111 20.0164C3.5993 20.0072 3.4576 20.0361 3.33079 20.1003C3.20398 20.1645 3.0967 20.2615 3.02014 20.3812C2.95036 20.265 2.85055 20.1698 2.73122 20.1057C2.61189 20.0415 2.47745 20.0106 2.34208 20.0164C2.22407 20.0105 2.10655 20.0355 2.00117 20.0889C1.89579 20.1424 1.8062 20.2224 1.74126 20.3211V20.0679H1.29492V22.1193H1.74553V20.982C1.73579 20.9118 1.74171 20.8404 1.76287 20.7727C1.78402 20.7051 1.81989 20.643 1.8679 20.5909C1.9159 20.5388 1.97485 20.498 2.04051 20.4714C2.10617 20.4448 2.17691 20.433 2.24765 20.437C2.54376 20.437 2.69399 20.6301 2.69399 20.9777V22.1193H3.1446V20.982C3.13558 20.9119 3.14202 20.8408 3.16344 20.7735C3.18487 20.7062 3.22077 20.6444 3.26863 20.5925C3.31648 20.5405 3.37512 20.4997 3.44044 20.4728C3.50575 20.446 3.57616 20.4337 3.64671 20.437C3.95139 20.437 4.0973 20.6301 4.0973 20.9777V22.1193H4.5479ZM11.217 20.0679H10.4874V19.4456H10.0368V20.0679H9.6205V20.4756H10.0368V21.4112C10.0368 21.8875 10.2213 22.1708 10.7492 22.1708C10.9464 22.1714 11.1397 22.1163 11.3071 22.012L11.1783 21.63C11.0587 21.7014 10.9228 21.7413 10.7835 21.7459C10.5603 21.7459 10.4874 21.6085 10.4874 21.4026V20.4756H11.217V20.0679ZM15.0235 20.0164C14.9147 20.0132 14.8071 20.0394 14.7119 20.0923C14.6167 20.1452 14.5376 20.2227 14.4828 20.3168V20.0679H14.0408V22.1193H14.4871V20.9691C14.4871 20.6301 14.633 20.4413 14.9249 20.4413C15.0203 20.44 15.1151 20.4575 15.2038 20.4928L15.3411 20.0722C15.2392 20.0357 15.1318 20.0169 15.0235 20.0164V20.0164ZM9.26861 20.231C9.01598 20.0808 8.7255 20.0063 8.43176 20.0164C7.91247 20.0164 7.57775 20.2653 7.57775 20.673C7.57775 21.0078 7.82665 21.2138 8.28582 21.2781L8.49612 21.3082C8.74072 21.3424 8.85661 21.4069 8.85661 21.5227C8.85661 21.6815 8.69351 21.7717 8.38883 21.7717C8.14374 21.7787 7.90341 21.7031 7.70647 21.5571L7.4962 21.9047C7.75617 22.0862 8.06757 22.1795 8.38454 22.1708C8.97677 22.1708 9.32007 21.8918 9.32007 21.5013C9.32007 21.1408 9.04974 20.9519 8.60342 20.8876L8.39315 20.8575C8.2 20.8318 8.04553 20.7932 8.04553 20.6559C8.04553 20.5057 8.1914 20.4155 8.43605 20.4155C8.66068 20.4189 8.88075 20.4795 9.07549 20.5915L9.26861 20.231ZM21.2248 20.0164C21.116 20.0132 21.0083 20.0394 20.9132 20.0923C20.818 20.1452 20.7388 20.2227 20.6841 20.3168V20.0679H20.2421V22.1193H20.6884V20.9691C20.6884 20.6301 20.8343 20.4413 21.1261 20.4413C21.2216 20.44 21.3164 20.4575 21.4051 20.4928L21.5424 20.0722C21.4405 20.0357 21.3331 20.0169 21.2248 20.0164V20.0164ZM15.4741 21.0935C15.4682 21.2381 15.4926 21.3822 15.5457 21.5167C15.5989 21.6513 15.6796 21.7732 15.7826 21.8747C15.8857 21.9761 16.0089 22.0549 16.1442 22.1059C16.2796 22.1569 16.4241 22.179 16.5685 22.1708C16.8365 22.1842 17.0998 22.097 17.3066 21.9261L17.0921 21.5656C16.9378 21.6833 16.7496 21.748 16.5556 21.7502C16.3884 21.74 16.2313 21.6664 16.1165 21.5444C16.0016 21.4224 15.9377 21.2611 15.9377 21.0936C15.9377 20.926 16.0016 20.7648 16.1165 20.6427C16.2313 20.5207 16.3884 20.4471 16.5556 20.437C16.7496 20.4392 16.9378 20.5039 17.0921 20.6215L17.3066 20.261C17.0998 20.0902 16.8365 20.003 16.5685 20.0164C16.4241 20.0082 16.2796 20.0303 16.1443 20.0813C16.0089 20.1323 15.8857 20.211 15.7827 20.3125C15.6796 20.414 15.5989 20.5359 15.5457 20.6704C15.4926 20.8049 15.4682 20.949 15.4741 21.0935V21.0935ZM19.6541 21.0935V20.0679H19.2078V20.3168C19.1316 20.2186 19.033 20.1401 18.9203 20.0879C18.8075 20.0356 18.6839 20.0111 18.5598 20.0164C18.2832 20.03 18.0225 20.1494 17.8315 20.3499C17.6406 20.5504 17.5341 20.8167 17.5341 21.0936C17.5341 21.3705 17.6406 21.6368 17.8315 21.8373C18.0225 22.0378 18.2832 22.1572 18.5598 22.1708C18.6839 22.1761 18.8075 22.1516 18.9203 22.0993C19.033 22.047 19.1316 21.9685 19.2078 21.8703V22.1193H19.6541V21.0935ZM17.9933 21.0935C18.0002 20.9725 18.0424 20.8561 18.1147 20.7588C18.1869 20.6614 18.2861 20.5874 18.4 20.5457C18.5139 20.504 18.6374 20.4966 18.7555 20.5243C18.8735 20.5521 18.9808 20.6137 19.0642 20.7018C19.1476 20.7898 19.2035 20.9002 19.2248 21.0196C19.2462 21.139 19.2322 21.2619 19.1845 21.3734C19.1368 21.4849 19.0575 21.58 18.9564 21.6469C18.8553 21.7138 18.7368 21.7498 18.6156 21.7502C18.5306 21.7513 18.4463 21.7349 18.368 21.7018C18.2897 21.6688 18.2191 21.6199 18.1606 21.5582C18.1021 21.4965 18.0571 21.4233 18.0283 21.3434C17.9995 21.2634 17.9876 21.1783 17.9933 21.0935V21.0935ZM12.6074 20.0164C12.3291 20.0311 12.0673 20.1529 11.8768 20.3565C11.6864 20.56 11.5822 20.8294 11.5861 21.1081C11.59 21.3867 11.7017 21.6531 11.8977 21.8512C12.0937 22.0494 12.3588 22.1639 12.6375 22.1708C12.9437 22.1815 13.2431 22.0792 13.4786 21.8832L13.2597 21.5528C13.0903 21.6886 12.8804 21.7641 12.6632 21.7673C12.5157 21.7798 12.3692 21.7343 12.2547 21.6406C12.1401 21.5468 12.0666 21.4122 12.0495 21.2652H13.573C13.5773 21.2095 13.5816 21.1537 13.5816 21.0935C13.5773 20.4541 13.1825 20.0164 12.6074 20.0164V20.0164ZM12.5988 20.4155C12.7336 20.4129 12.864 20.4638 12.9613 20.5571C13.0587 20.6504 13.115 20.7785 13.1181 20.9133H12.0538C12.0616 20.7756 12.1231 20.6464 12.2249 20.5534C12.3268 20.4604 12.461 20.4109 12.5988 20.4155V20.4155ZM23.7954 21.0935V19.244H23.3491V20.3168C23.2729 20.2187 23.1743 20.1401 23.0616 20.0879C22.9489 20.0356 22.8253 20.0111 22.7011 20.0164C22.4245 20.03 22.1638 20.1494 21.9728 20.3499C21.7819 20.5504 21.6754 20.8167 21.6754 21.0936C21.6754 21.3705 21.7819 21.6368 21.9728 21.8373C22.1638 22.0378 22.4245 22.1572 22.7011 22.1708C22.8253 22.1761 22.9489 22.1516 23.0616 22.0993C23.1743 22.047 23.2729 21.9685 23.3491 21.8703V22.1193H23.7954V21.0935ZM24.5394 21.822C24.5672 21.8218 24.5946 21.8272 24.6202 21.838C24.6447 21.8482 24.6671 21.8631 24.6861 21.8817C24.705 21.9003 24.7201 21.9224 24.7306 21.9467C24.7413 21.9717 24.7469 21.9986 24.7469 22.0258C24.7469 22.053 24.7413 22.0799 24.7306 22.1049C24.72 22.1291 24.705 22.151 24.6861 22.1696C24.6671 22.1882 24.6447 22.2031 24.6202 22.2135C24.5947 22.2244 24.5672 22.23 24.5394 22.2298C24.4986 22.2302 24.4586 22.2186 24.4243 22.1963C24.39 22.1741 24.3631 22.1423 24.3468 22.1049C24.3361 22.0799 24.3306 22.053 24.3306 22.0258C24.3306 21.9986 24.3361 21.9717 24.3468 21.9467C24.3573 21.9224 24.3723 21.9003 24.3911 21.8817C24.4101 21.8629 24.4325 21.8481 24.4573 21.838C24.4833 21.8272 24.5112 21.8218 24.5394 21.822V21.822ZM24.5394 22.1848C24.5606 22.185 24.5815 22.1807 24.6009 22.1723C24.6196 22.1642 24.6365 22.1527 24.6509 22.1383C24.6805 22.1084 24.6971 22.068 24.6971 22.0259C24.6971 21.9837 24.6805 21.9433 24.6509 21.9134C24.6365 21.8991 24.6196 21.8876 24.6009 21.8797C24.5815 21.8714 24.5606 21.8673 24.5394 21.8675C24.5179 21.8673 24.4966 21.8715 24.4767 21.8797C24.4578 21.8875 24.4406 21.899 24.426 21.9134C24.3964 21.9433 24.3797 21.9837 24.3797 22.0259C24.3797 22.068 24.3964 22.1084 24.426 22.1383C24.4406 22.1528 24.4578 22.1643 24.4767 22.1723C24.4966 22.1807 24.5179 22.1849 24.5394 22.1848V22.1848ZM24.5514 21.9304C24.5715 21.9291 24.5914 21.9349 24.6077 21.9467C24.6142 21.952 24.6193 21.9588 24.6227 21.9665C24.6262 21.9741 24.6278 21.9825 24.6274 21.9909C24.6276 21.9981 24.6263 22.0053 24.6236 22.0119C24.6209 22.0186 24.6169 22.0246 24.6117 22.0296C24.5992 22.0406 24.5835 22.0472 24.5669 22.0483L24.6289 22.1198H24.5804L24.523 22.0488H24.5045V22.1198H24.464V21.9304H24.5514ZM24.5045 21.9659V22.0164H24.551C24.5599 22.0168 24.5688 22.0147 24.5765 22.0101C24.5796 22.008 24.5821 22.0052 24.5838 22.0018C24.5854 21.9984 24.5862 21.9947 24.5859 21.9909C24.5861 21.9872 24.5854 21.9835 24.5837 21.9802C24.582 21.9769 24.5795 21.9741 24.5765 21.9721C24.5687 21.9676 24.5599 21.9655 24.551 21.9659H24.5045ZM22.1346 21.0935C22.1416 20.9725 22.1838 20.8561 22.256 20.7588C22.3283 20.6615 22.4275 20.5874 22.5414 20.5457C22.6552 20.5041 22.7788 20.4967 22.8968 20.5244C23.0148 20.5522 23.1222 20.6138 23.2056 20.7018C23.289 20.7898 23.3448 20.9003 23.3661 21.0197C23.3875 21.139 23.3735 21.262 23.3257 21.3735C23.278 21.4849 23.1988 21.58 23.0977 21.6469C22.9966 21.7139 22.8781 21.7498 22.7569 21.7502C22.6719 21.7513 22.5876 21.7349 22.5093 21.7018C22.431 21.6688 22.3604 21.6198 22.3019 21.5582C22.2435 21.4965 22.1984 21.4233 22.1696 21.3434C22.1408 21.2634 22.1289 21.1783 22.1346 21.0935V21.0935ZM7.06276 21.0935V20.0679H6.61642V20.3168C6.54024 20.2186 6.44166 20.1401 6.32892 20.0879C6.21617 20.0356 6.09255 20.0111 5.9684 20.0164C5.69184 20.03 5.4311 20.1494 5.24017 20.3499C5.04923 20.5504 4.94274 20.8167 4.94274 21.0936C4.94274 21.3705 5.04923 21.6368 5.24017 21.8373C5.4311 22.0378 5.69184 22.1572 5.9684 22.1708C6.09256 22.1761 6.21617 22.1516 6.32892 22.0993C6.44166 22.047 6.54024 21.9685 6.61642 21.8703V22.1193H7.06276V21.0935ZM5.40195 21.0935C5.40888 20.9725 5.45109 20.8561 5.52336 20.7588C5.59564 20.6615 5.69482 20.5874 5.80869 20.5457C5.92255 20.5041 6.04612 20.4967 6.16414 20.5244C6.28217 20.5522 6.3895 20.6138 6.47289 20.7018C6.55629 20.7898 6.61211 20.9003 6.63346 21.0197C6.65482 21.139 6.64077 21.262 6.59307 21.3735C6.54536 21.4849 6.46607 21.58 6.36499 21.6469C6.2639 21.7139 6.14544 21.7498 6.0242 21.7502C5.93922 21.7513 5.85492 21.7349 5.77662 21.7018C5.69832 21.6688 5.62771 21.6198 5.56925 21.5582C5.51079 21.4965 5.46575 21.4233 5.43695 21.3434C5.40816 21.2634 5.39624 21.1783 5.40195 21.0935V21.0935Z" fill="#231F20"/>
<path d="M15.8802 4.43456H9.12012V16.5826H15.8802V4.43456Z" fill="#FF5F00"/>
<path d="M9.54934 10.509C9.54828 9.33907 9.8134 8.18422 10.3246 7.13188C10.8359 6.07955 11.5798 5.1573 12.5002 4.43499C11.3604 3.53914 9.99167 2.98203 8.5503 2.82733C7.10893 2.67262 5.65311 2.92657 4.34924 3.56014C3.04537 4.19371 1.94606 5.18135 1.17696 6.41016C0.40786 7.63897 0 9.05937 0 10.509C0 11.9587 0.40786 13.3791 1.17696 14.6079C1.94606 15.8367 3.04537 16.8243 4.34924 17.4579C5.65311 18.0915 7.10893 18.3454 8.5503 18.1907C9.99167 18.036 11.3604 17.4789 12.5002 16.5831C11.5798 15.8607 10.8359 14.9385 10.3246 13.8862C9.8134 12.8338 9.54828 11.679 9.54934 10.509V10.509Z" fill="#EB001B"/>
<path d="M24.9998 10.509C24.9998 11.9586 24.592 13.3791 23.823 14.6079C23.0539 15.8367 21.9546 16.8243 20.6508 17.4579C19.3469 18.0915 17.8911 18.3454 16.4498 18.1907C15.0084 18.036 13.6397 17.4789 12.5 16.5831C13.4195 15.86 14.1629 14.9376 14.6741 13.8854C15.1852 12.8333 15.4508 11.6788 15.4508 10.509C15.4508 9.33926 15.1852 8.18477 14.6741 7.1326C14.1629 6.08042 13.4195 5.15803 12.5 4.43498C13.6397 3.53914 15.0084 2.98203 16.4498 2.82733C17.8911 2.67262 19.3469 2.92658 20.6508 3.56015C21.9546 4.19373 23.0539 5.18137 23.823 6.41018C24.592 7.63899 24.9998 9.05939 24.9998 10.509V10.509Z" fill="#F79E1B"/>
<path d="M24.263 15.2961V15.0474H24.3633V14.9968H24.1079V15.0474H24.2082V15.2961H24.263ZM24.7589 15.2961V14.9963H24.6806L24.5905 15.2025L24.5005 14.9963H24.4221V15.2961H24.4774V15.0699L24.5619 15.265H24.6192L24.7036 15.0694V15.2961H24.7589Z" fill="#F79E1B"/>
</svg>
