<svg width="30" height="10" viewBox="0 0 30 10" fill="none" xmlns="http://www.w3.org/2000/svg">
<path d="M14.8541 0.176633L12.8498 9.84817H10.4255L12.43 0.176633H14.8541ZM25.0528 6.42166L26.3287 2.7898L27.063 6.42166H25.0528ZM27.7584 9.84817H30L28.0417 0.176633H25.974C25.508 0.176633 25.1152 0.455504 24.9413 0.885558L21.3039 9.84817H23.8498L24.3552 8.40378H27.4649L27.7584 9.84817ZM21.4302 6.69074C21.4407 4.13826 18.0116 3.99687 18.0345 2.85637C18.0419 2.50984 18.3622 2.1407 19.0624 2.04629C19.4095 2.00017 20.3673 1.96276 21.4531 2.47917L21.8778 0.427443C21.2947 0.209697 20.5442 0 19.6103 0C17.2139 0 15.528 1.31387 15.5146 3.1968C15.4992 4.5892 16.7188 5.36556 17.6358 5.82933C18.5812 6.30332 18.898 6.60721 18.8933 7.03074C18.8868 7.67962 18.1395 7.96698 17.4436 7.97786C16.2242 7.99743 15.5173 7.63764 14.954 7.3666L14.5139 9.48685C15.0812 9.75485 16.1266 9.98804 17.209 10C19.7568 10 21.4226 8.70157 21.4302 6.69074ZM11.3901 0.176633L7.46233 9.84817H4.90021L2.96719 2.1296C2.85001 1.65496 2.74779 1.4805 2.39141 1.27994C1.80847 0.953209 0.846172 0.647582 0 0.457462L0.0573254 0.176633H4.18217C4.70758 0.176633 5.1803 0.537512 5.30064 1.16225L6.32174 6.75926L8.84339 0.176633H11.3901Z" fill="#1434CB"/>
</svg>
