<svg width="74" height="34" viewBox="0 0 74 34" fill="none" xmlns="http://www.w3.org/2000/svg">
<path d="M41.8 2.09998H0V31.2H41.8V2.09998Z" fill="#F9F08C"/>
<path d="M0 11.1H14.1L16.1 13.2H25.8L27.8 11.1H41.9" stroke="#83814D" stroke-miterlimit="10"/>
<path d="M41.9 23.5H27.8L25.8 21.8H16.1L14.1 23.5H0" stroke="#83814D" stroke-miterlimit="10"/>
<path d="M13.8 17.6L16.1001 13.2H25.8L28.2001 17.6L25.8 21.8999H16.1001L13.8 17.6Z" stroke="#83814D" stroke-miterlimit="10"/>
<path d="M14.1 23.1V31.2" stroke="#83814D" stroke-miterlimit="10"/>
<path d="M14.1 11.5V2.09998" stroke="#83814D" stroke-miterlimit="10"/>
<path d="M27.8 11.1V2.09998" stroke="#83814D" stroke-miterlimit="10"/>
<path d="M27.8 23.5V31.2" stroke="#83814D" stroke-miterlimit="10"/>
<path d="M56.3002 12.5C57.4002 13.4 58.2002 14.8 58.2002 16.4C58.2002 18.1 57.4002 19.5 56.2002 20.5" stroke="#83814D" stroke-width="2" stroke-miterlimit="10" stroke-linecap="round"/>
<path d="M60.6002 7.20001C63.3002 9.40001 65.0002 12.7 65.0002 16.4C65.0002 20.3 63.2002 23.7 60.3002 25.9" stroke="#83814D" stroke-width="2" stroke-miterlimit="10" stroke-linecap="round"/>
<path d="M65.7002 1C70.1002 4.6 73.0002 10.2 73.0002 16.4C73.0002 22.8 69.9002 28.6 65.2002 32.2" stroke="#83814D" stroke-width="2" stroke-miterlimit="10" stroke-linecap="round"/>
</svg>
