<svg width="95" height="73" viewBox="0 0 95 73" fill="none" xmlns="http://www.w3.org/2000/svg">
<path d="M89.1813 10.8835H83.7427V5.46177C83.7386 4.02485 83.164 2.64845 82.1451 1.63267C81.1261 0.616892 79.7454 0.0440666 78.304 0.0400391H13.0402C11.5988 0.0440731 10.2181 0.616913 9.19916 1.63267C8.18022 2.64845 7.6056 4.02485 7.60156 5.46177V36.185C7.60156 37.183 8.41332 37.9923 9.41445 37.9923C10.4156 37.9923 11.2273 37.183 11.2273 36.185V5.46177C11.2273 4.46375 12.0391 3.65452 13.0402 3.65452H78.3041C78.7848 3.65452 79.2461 3.84493 79.586 4.18378C79.9259 4.52264 80.1169 4.98253 80.1169 5.46177V48.8358C80.1169 49.315 79.9259 49.7749 79.586 50.1138C79.2461 50.4526 78.7848 50.643 78.3041 50.643H38.4206C37.4195 50.643 36.6077 51.4523 36.6077 52.4503C36.6077 53.4483 37.4195 54.2575 38.4206 54.2575H78.3041C79.7455 54.2535 81.1262 53.6806 82.1451 52.6649C83.164 51.6491 83.7387 50.2727 83.7427 48.8358V43.414H90.9942V59.6793C90.9942 60.1585 90.8032 60.6184 90.4633 60.9573C90.1234 61.2961 89.6621 61.4865 89.1814 61.4865H36.6077C35.6066 61.4865 34.7948 62.2958 34.7948 63.2938C34.7948 64.2918 35.6066 65.101 36.6077 65.101H89.1814C90.6227 65.097 92.0034 64.5242 93.0224 63.5084C94.0413 62.4926 94.6159 61.1162 94.62 59.6793V16.3053C94.6159 14.8684 94.0413 13.492 93.0224 12.4762C92.0034 11.4604 90.6226 10.8875 89.1813 10.8835ZM90.9942 28.956H83.7427V14.498H89.1813C89.6621 14.498 90.1234 14.6884 90.4633 15.0273C90.8032 15.3661 90.9942 15.826 90.9942 16.3053V28.956Z" fill="#00A19D"/>
<path d="M60.1753 25.3416H45.6723C44.6711 25.3416 43.8594 26.1509 43.8594 27.1489C43.8594 28.1469 44.6711 28.9561 45.6723 28.9561H60.1753C61.1765 28.9561 61.9882 28.1469 61.9882 27.1489C61.9882 26.1509 61.1765 25.3416 60.1753 25.3416Z" fill="#00A19D"/>
<path d="M74.6787 28.9561C75.6798 28.9561 76.4916 28.1469 76.4916 27.1489C76.4916 26.1509 75.6798 25.3416 74.6787 25.3416H67.4271C66.426 25.3416 65.6143 26.1509 65.6143 27.1489C65.6143 28.1469 66.426 28.9561 67.4271 28.9561H74.6787Z" fill="#00A19D"/>
<path d="M29.3564 27.1489C29.3564 27.6281 29.5474 28.088 29.8874 28.4269C30.2273 28.7657 30.6886 28.9561 31.1693 28.9561H38.4209C39.422 28.9561 40.2338 28.1469 40.2338 27.1489C40.2338 26.1509 39.422 25.3416 38.4209 25.3416H31.1693C30.1682 25.3416 29.3564 26.1509 29.3564 27.1489Z" fill="#00A19D"/>
<path d="M16.6664 28.9561H23.9179C24.9191 28.9561 25.7308 28.1469 25.7308 27.1489C25.7308 26.1509 24.9191 25.3416 23.9179 25.3416H16.6664C15.6653 25.3416 14.8535 26.1509 14.8535 27.1489C14.8535 28.1469 15.6653 28.9561 16.6664 28.9561Z" fill="#00A19D"/>
<path d="M20.2922 7.26904H27.5437C30.5471 7.26904 32.9824 10.2631 32.9824 12.6908V16.3053C32.9824 19.2993 30.5471 21.727 27.5437 21.727H20.2922C17.2888 21.727 14.8535 18.733 14.8535 16.3053V12.6908C14.8535 9.69675 17.2888 7.26904 20.2922 7.26904Z" fill="#00A19D"/>
<path d="M16.6661 39.7996C12.3385 39.7996 8.18839 41.5133 5.12907 44.5637C2.06892 47.6136 0.350098 51.7508 0.350098 56.0649C0.350098 60.3789 2.0691 64.5162 5.12907 67.566C8.18839 70.6166 12.3385 72.3301 16.6661 72.3301C20.9936 72.3301 25.1437 70.6165 28.203 67.566C31.2632 64.5162 32.982 60.3789 32.982 56.0649C32.9755 51.7533 31.2541 47.62 28.1956 44.5712C25.1371 41.5222 20.9911 39.8062 16.6661 39.7996ZM14.8532 63.2939C14.8532 62.5629 15.2951 61.9037 15.9725 61.6246C16.6499 61.3446 17.4292 61.4987 17.948 62.0159C18.4668 62.5331 18.6214 63.31 18.3405 63.9853C18.0605 64.6606 17.3993 65.1011 16.6661 65.1011C15.6649 65.1011 14.8532 64.2919 14.8532 63.2939ZM18.4789 57.8721C18.4789 58.8701 17.6672 59.6794 16.6661 59.6794C15.6649 59.6794 14.8532 58.8701 14.8532 57.8721V48.8359C14.8532 47.8379 15.6649 47.0286 16.6661 47.0286C17.6672 47.0286 18.4789 47.8379 18.4789 48.8359V57.8721Z" fill="#00A19D"/>
<path d="M60.1755 32.5706C57.8204 32.5674 55.6101 33.705 54.2489 35.6204C52.8868 37.5366 52.5437 39.9917 53.3279 42.2065C54.1113 44.4204 55.9258 46.1172 58.192 46.756C60.4582 47.3948 62.895 46.8972 64.7257 45.4199C66.1525 46.5704 67.9646 47.1392 69.7953 47.0109C71.626 46.8827 73.3392 46.067 74.5907 44.7284C75.8419 43.3907 76.5379 41.6295 76.5379 39.7997C76.5379 37.9699 75.8419 36.2085 74.5907 34.871C73.3394 33.5325 71.626 32.7167 69.7953 32.5885C67.9646 32.4602 66.1526 33.029 64.7257 34.1795C63.4364 33.1435 61.8314 32.5763 60.1755 32.5706ZM62.5322 42.5283C61.8799 43.0979 61.0423 43.4125 60.1755 43.4142C58.8798 43.4142 57.6828 42.7251 57.0354 41.6069C56.3879 40.4887 56.3879 39.1106 57.0354 37.9924C57.6828 36.8742 58.8798 36.1852 60.1755 36.1852C61.0423 36.1868 61.8799 36.5014 62.5322 37.071C61.8071 38.8186 61.8071 40.7808 62.5322 42.5283Z" fill="#00A19D"/>
</svg>
