<svg width="95" height="73" viewBox="0 0 95 73" fill="none" xmlns="http://www.w3.org/2000/svg">
<path d="M59.8504 24.96H45.4504C44.4564 24.96 43.6504 25.8555 43.6504 26.96C43.6504 28.0645 44.4564 28.96 45.4504 28.96H59.8504C60.8444 28.96 61.6504 28.0645 61.6504 26.96C61.6504 25.8555 60.8444 24.96 59.8504 24.96Z" fill="#00A19D"/>
<path d="M73.9834 28.96C74.9044 28.96 75.6504 28.0645 75.6504 26.96C75.6504 25.8555 74.9044 24.96 73.9834 24.96H67.3174C66.3964 24.96 65.6504 25.8555 65.6504 26.96C65.6504 28.0645 66.3964 28.96 67.3174 28.96H73.9834Z" fill="#00A19D"/>
<path d="M28.6504 26.96C28.6504 27.4904 28.8436 27.9993 29.1873 28.3743C29.5311 28.7493 29.9976 28.96 30.4837 28.96H37.8171C38.8295 28.96 39.6504 28.0645 39.6504 26.96C39.6504 25.8555 38.8295 24.96 37.8171 24.96H30.4837C29.4713 24.96 28.6504 25.8555 28.6504 26.96Z" fill="#00A19D"/>
<path d="M16.4837 28.96H23.8171C24.8295 28.96 25.6504 28.0645 25.6504 26.96C25.6504 25.8555 24.8295 24.96 23.8171 24.96H16.4837C15.4713 24.96 14.6504 25.8555 14.6504 26.96C14.6504 28.0645 15.4713 28.96 16.4837 28.96Z" fill="#00A19D"/>
<path d="M20.0504 6.95996H27.2504C30.2324 6.95996 32.6504 10.0663 32.6504 12.585V16.335C32.6504 19.4413 30.2324 21.96 27.2504 21.96H20.0504C17.0684 21.96 14.6504 18.8537 14.6504 16.335V12.585C14.6504 9.47866 17.0684 6.95996 20.0504 6.95996Z" fill="#00A19D"/>
<path d="M59.7201 31.96C57.4272 31.9567 55.2753 33.1369 53.95 35.1241C52.6239 37.112 52.2898 39.6591 53.0533 41.9569C53.816 44.2538 55.5826 46.0141 57.789 46.6769C59.9954 47.3396 62.3674 46.8233 64.1504 45.2907C65.5394 46.4843 67.3034 47.0744 69.0854 46.9413C70.8684 46.8083 72.5364 45.962 73.7544 44.5733C74.9724 43.1855 75.6504 41.3582 75.6504 39.4599C75.6504 37.5616 74.9724 35.7342 73.7544 34.3465C72.5364 32.9579 70.8684 32.1116 69.0854 31.9785C67.3034 31.8454 65.5394 32.4355 64.1504 33.6291C62.8944 32.5544 61.3322 31.9658 59.7201 31.96ZM62.0144 42.2907C61.3795 42.8817 60.564 43.2081 59.7201 43.2098C58.4586 43.2098 57.2932 42.495 56.6629 41.3348C56.0325 40.1747 56.0325 38.745 56.6629 37.5849C57.2932 36.4248 58.4586 35.71 59.7201 35.71C60.564 35.7116 61.3795 36.0381 62.0144 36.629C61.3086 38.442 61.3086 40.4776 62.0144 42.2907Z" fill="#00A19D"/>
<path d="M88.8344 10.8741H83.3974V5.4371C83.3934 3.9961 82.8194 2.6158 81.8004 1.5972C80.7824 0.578498 79.4014 0.0041 77.9604 0H12.7163C11.2754 0.0041 9.8951 0.578498 8.8764 1.5972C7.8578 2.6158 7.2833 3.9961 7.2793 5.4371V36.2469C7.2793 37.2477 8.0908 38.0592 9.0917 38.0592C10.0925 38.0592 10.904 37.2477 10.904 36.2469V5.4371C10.904 4.4362 11.7155 3.6247 12.7163 3.6247H77.9604C78.4414 3.6247 78.9024 3.8157 79.2424 4.1555C79.5824 4.4953 79.7734 4.9565 79.7734 5.4371V48.9333C79.7734 49.4139 79.5824 49.8751 79.2424 50.2149C78.9024 50.5547 78.4414 50.7457 77.9604 50.7457H38.0892C37.0883 50.7457 36.2768 51.557 36.2768 52.558C36.2768 53.559 37.0883 54.37 38.0892 54.37H77.9604C79.4014 54.366 80.7824 53.792 81.8004 52.773C82.8194 51.755 83.3934 50.3743 83.3974 48.9333V43.4963H90.6474V59.807C90.6474 60.288 90.4564 60.749 90.1164 61.089C89.7764 61.429 89.3154 61.62 88.8344 61.62H36.2768C35.276 61.62 34.4644 62.431 34.4644 63.432C34.4644 64.433 35.276 65.244 36.2768 65.244H88.8344C90.2754 65.24 91.6564 64.666 92.6744 63.647C93.6934 62.629 94.2674 61.248 94.2714 59.807V16.3112C94.2674 14.8702 93.6934 13.4899 92.6744 12.4713C91.6564 11.4526 90.2754 10.8782 88.8344 10.8741ZM90.6474 28.9975H83.3974V14.4988H88.8344C89.3154 14.4988 89.7764 14.6897 90.1164 15.0295C90.4564 15.3693 90.6474 15.8305 90.6474 16.3111V28.9975Z" fill="#00A19D"/>
<path d="M16.3456 39.6035C7.3362 39.6035 0 46.9397 0 55.949C0 64.958 7.3362 72.295 16.3456 72.295C25.3711 72.295 32.6912 64.958 32.6912 55.949C32.6912 46.9397 25.3711 39.6035 16.3456 39.6035ZM26.1594 51.251L14.5437 62.851C14.2541 63.157 13.8358 63.317 13.4497 63.317C13.0636 63.317 12.6614 63.157 12.3557 62.851L6.5479 57.043C5.9365 56.432 5.9365 55.45 6.5479 54.839C7.1592 54.228 8.1406 54.228 8.752 54.839L13.4497 59.537L23.9553 49.0312C24.5667 48.4198 25.548 48.4198 26.1594 49.0312C26.7707 49.6586 26.7707 50.64 26.1594 51.251Z" fill="#00A19D"/>
</svg>
