<svg width="351" height="214" viewBox="0 0 351 214" fill="none" xmlns="http://www.w3.org/2000/svg">
<path d="M336.5 214H14.5C6.5 214 0 207.5 0 199.5V14.5C0 6.5 6.5 0 14.5 0H336.5C344.5 0 351 6.5 351 14.5V199.5C351 207.5 344.5 214 336.5 214Z" fill="#C4C4C4"/>
<path opacity="0.35" d="M234.1 214H336.5C344.5 214 351 207.5 351 199.5V14.5C351 6.5 344.5 0 336.5 0H14.5L234.1 214Z" fill="white"/>
<path d="M290.3 53H248.5V82.1H290.3V53Z" fill="#F9F08C"/>
<path d="M248.5 62H262.6L264.6 64.1H274.3L276.3 62H290.4" stroke="#83814D" stroke-miterlimit="10"/>
<path d="M290.4 74.3999H276.3L274.3 72.7H264.6L262.6 74.3999H248.5" stroke="#83814D" stroke-miterlimit="10"/>
<path d="M262.3 68.5L264.6 64.1H274.3L276.7 68.5L274.3 72.8H264.6L262.3 68.5Z" stroke="#83814D" stroke-miterlimit="10"/>
<path d="M262.6 74V82.1" stroke="#83814D" stroke-miterlimit="10"/>
<path d="M262.6 62.4V53" stroke="#83814D" stroke-miterlimit="10"/>
<path d="M276.3 62V53" stroke="#83814D" stroke-miterlimit="10"/>
<path d="M276.3 74.4V82.1" stroke="#83814D" stroke-miterlimit="10"/>
<path d="M304.8 63.4C305.9 64.3 306.7 65.7 306.7 67.3C306.7 69 305.9 70.4 304.7 71.4" stroke="#83814D" stroke-width="2" stroke-miterlimit="10" stroke-linecap="round"/>
<path d="M309.1 58.1C311.8 60.3 313.5 63.6 313.5 67.3C313.5 71.2 311.7 74.6 308.8 76.8" stroke="#83814D" stroke-width="2" stroke-miterlimit="10" stroke-linecap="round"/>
<path d="M314.2 51.9C318.6 55.5 321.5 61.1 321.5 67.3C321.5 73.7 318.4 79.5 313.7 83.1" stroke="#83814D" stroke-width="2" stroke-miterlimit="10" stroke-linecap="round"/>
<path opacity="0.44" d="M97.2998 87.9H43.9998C38.5998 87.9 34.2998 83.5 34.2998 78.2V52.1C34.2998 46.7 38.6998 42.4 43.9998 42.4H97.2998C102.7 42.4 107 46.8 107 52.1V78.2C107 83.6 102.6 87.9 97.2998 87.9Z" fill="white"/>
<path d="M67.4916 128.327C66.3197 128.327 65.3215 128.008 64.497 127.37C63.6726 126.727 63.0425 125.797 62.607 124.578C62.1714 123.354 61.9536 121.876 61.9536 120.145C61.9536 118.423 62.1714 116.953 62.607 115.734C63.0477 114.511 63.6803 113.577 64.5048 112.934C65.3345 112.286 66.3301 111.962 67.4916 111.962C68.6531 111.962 69.6461 112.286 70.4706 112.934C71.3002 113.577 71.9329 114.511 72.3684 115.734C72.8092 116.953 73.0296 118.423 73.0296 120.145C73.0296 121.876 72.8118 123.354 72.3762 124.578C71.9406 125.797 71.3106 126.727 70.4861 127.37C69.6617 128.008 68.6635 128.327 67.4916 128.327ZM67.4916 126.616C68.6531 126.616 69.5554 126.056 70.1984 124.936C70.8413 123.816 71.1628 122.219 71.1628 120.145C71.1628 118.765 71.015 117.591 70.7195 116.621C70.4291 115.651 70.0091 114.913 69.4594 114.404C68.915 113.896 68.259 113.642 67.4916 113.642C66.3404 113.642 65.4408 114.21 64.7926 115.345C64.1444 116.476 63.8203 118.076 63.8203 120.145C63.8203 121.524 63.9655 122.696 64.2559 123.66C64.5463 124.625 64.9637 125.358 65.5082 125.861C66.0578 126.364 66.719 126.616 67.4916 126.616Z" fill="black"/>
<path d="M81.181 128.327C80.0091 128.327 79.0109 128.008 78.1864 127.37C77.3619 126.727 76.7319 125.797 76.2963 124.578C75.8608 123.354 75.643 121.876 75.643 120.145C75.643 118.423 75.8608 116.953 76.2963 115.734C76.7371 114.511 77.3697 113.577 78.1942 112.934C79.0238 112.286 80.0194 111.962 81.181 111.962C82.3425 111.962 83.3355 112.286 84.16 112.934C84.9896 113.577 85.6222 114.511 86.0578 115.734C86.4986 116.953 86.7189 118.423 86.7189 120.145C86.7189 121.876 86.5012 123.354 86.0656 124.578C85.63 125.797 85 126.727 84.1755 127.37C83.351 128.008 82.3529 128.327 81.181 128.327ZM81.181 126.616C82.3425 126.616 83.2447 126.056 83.8877 124.936C84.5307 123.816 84.8522 122.219 84.8522 120.145C84.8522 118.765 84.7044 117.591 84.4089 116.621C84.1185 115.651 83.6985 114.913 83.1488 114.404C82.6043 113.896 81.9484 113.642 81.181 113.642C80.0298 113.642 79.1301 114.21 78.482 115.345C77.8338 116.476 77.5097 118.076 77.5097 120.145C77.5097 121.524 77.6549 122.696 77.9453 123.66C78.2357 124.625 78.6531 125.358 79.1976 125.861C79.7472 126.364 80.4083 126.616 81.181 126.616Z" fill="black"/>
<path d="M94.8703 128.327C93.6984 128.327 92.7003 128.008 91.8758 127.37C91.0513 126.727 90.4213 125.797 89.9857 124.578C89.5501 123.354 89.3324 121.876 89.3324 120.145C89.3324 118.423 89.5501 116.953 89.9857 115.734C90.4265 114.511 91.0591 113.577 91.8836 112.934C92.7132 112.286 93.7088 111.962 94.8703 111.962C96.0319 111.962 97.0249 112.286 97.8493 112.934C98.679 113.577 99.3116 114.511 99.7472 115.734C100.188 116.953 100.408 118.423 100.408 120.145C100.408 121.876 100.191 123.354 99.755 124.578C99.3194 125.797 98.6894 126.727 97.8649 127.37C97.0404 128.008 96.0422 128.327 94.8703 128.327ZM94.8703 126.616C96.0319 126.616 96.9341 126.056 97.5771 124.936C98.2201 123.816 98.5416 122.219 98.5416 120.145C98.5416 118.765 98.3938 117.591 98.0982 116.621C97.8078 115.651 97.3878 114.913 96.8382 114.404C96.2937 113.896 95.6378 113.642 94.8703 113.642C93.7192 113.642 92.8195 114.21 92.1714 115.345C91.5232 116.476 91.1991 118.076 91.1991 120.145C91.1991 121.524 91.3443 122.696 91.6347 123.66C91.925 124.625 92.3425 125.358 92.8869 125.861C93.4366 126.364 94.0977 126.616 94.8703 126.616Z" fill="black"/>
<path d="M108.56 128.327C107.388 128.327 106.39 128.008 105.565 127.37C104.741 126.727 104.111 125.797 103.675 124.578C103.24 123.354 103.022 121.876 103.022 120.145C103.022 118.423 103.24 116.953 103.675 115.734C104.116 114.511 104.748 113.577 105.573 112.934C106.403 112.286 107.398 111.962 108.56 111.962C109.721 111.962 110.714 112.286 111.539 112.934C112.368 113.577 113.001 114.511 113.437 115.734C113.877 116.953 114.098 118.423 114.098 120.145C114.098 121.876 113.88 123.354 113.444 124.578C113.009 125.797 112.379 126.727 111.554 127.37C110.73 128.008 109.732 128.327 108.56 128.327ZM108.56 126.616C109.721 126.616 110.623 126.056 111.266 124.936C111.909 123.816 112.231 122.219 112.231 120.145C112.231 118.765 112.083 117.591 111.788 116.621C111.497 115.651 111.077 114.913 110.528 114.404C109.983 113.896 109.327 113.642 108.56 113.642C107.409 113.642 106.509 114.21 105.861 115.345C105.213 116.476 104.888 118.076 104.888 120.145C104.888 121.524 105.034 122.696 105.324 123.66C105.614 124.625 106.032 125.358 106.576 125.861C107.126 126.364 107.787 126.616 108.56 126.616Z" fill="black"/>
<path d="M263.231 159.941C262.511 159.941 261.899 159.745 261.393 159.353C260.886 158.959 260.5 158.387 260.232 157.639C259.965 156.888 259.831 155.981 259.831 154.918C259.831 153.861 259.965 152.958 260.232 152.21C260.503 151.459 260.891 150.886 261.397 150.492C261.907 150.094 262.518 149.895 263.231 149.895C263.944 149.895 264.553 150.094 265.06 150.492C265.569 150.886 265.957 151.459 266.225 152.21C266.495 152.958 266.63 153.861 266.63 154.918C266.63 155.981 266.497 156.888 266.229 157.639C265.962 158.387 265.575 158.959 265.069 159.353C264.563 159.745 263.95 159.941 263.231 159.941ZM263.231 158.89C263.944 158.89 264.498 158.546 264.892 157.859C265.287 157.171 265.484 156.191 265.484 154.918C265.484 154.071 265.394 153.35 265.212 152.755C265.034 152.16 264.776 151.706 264.439 151.394C264.105 151.082 263.702 150.926 263.231 150.926C262.524 150.926 261.972 151.275 261.574 151.972C261.176 152.666 260.977 153.648 260.977 154.918C260.977 155.764 261.066 156.484 261.245 157.076C261.423 157.668 261.679 158.118 262.013 158.427C262.351 158.736 262.757 158.89 263.231 158.89Z" fill="black"/>
<path d="M271.634 159.941C270.915 159.941 270.302 159.745 269.796 159.353C269.29 158.959 268.903 158.387 268.636 157.639C268.368 156.888 268.235 155.981 268.235 154.918C268.235 153.861 268.368 152.958 268.636 152.21C268.906 151.459 269.295 150.886 269.801 150.492C270.31 150.094 270.921 149.895 271.634 149.895C272.347 149.895 272.957 150.094 273.463 150.492C273.972 150.886 274.361 151.459 274.628 152.21C274.899 152.958 275.034 153.861 275.034 154.918C275.034 155.981 274.9 156.888 274.633 157.639C274.365 158.387 273.979 158.959 273.473 159.353C272.966 159.745 272.354 159.941 271.634 159.941ZM271.634 158.89C272.347 158.89 272.901 158.546 273.296 157.859C273.691 157.171 273.888 156.191 273.888 154.918C273.888 154.071 273.797 153.35 273.616 152.755C273.438 152.16 273.18 151.706 272.842 151.394C272.508 151.082 272.105 150.926 271.634 150.926C270.928 150.926 270.375 151.275 269.977 151.972C269.58 152.666 269.381 153.648 269.381 154.918C269.381 155.764 269.47 156.484 269.648 157.076C269.826 157.668 270.082 158.118 270.417 158.427C270.754 158.736 271.16 158.89 271.634 158.89Z" fill="black"/>
<path d="M280.324 149.57L277.173 161.278H276.142L279.293 149.57H280.324Z" fill="black"/>
<path d="M284.83 159.941C284.111 159.941 283.498 159.745 282.992 159.353C282.486 158.959 282.099 158.387 281.832 157.639C281.564 156.888 281.431 155.981 281.431 154.918C281.431 153.861 281.564 152.958 281.832 152.21C282.102 151.459 282.491 150.886 282.997 150.492C283.506 150.094 284.117 149.895 284.83 149.895C285.543 149.895 286.153 150.094 286.659 150.492C287.168 150.886 287.557 151.459 287.824 152.21C288.095 152.958 288.23 153.861 288.23 154.918C288.23 155.981 288.096 156.888 287.829 157.639C287.561 158.387 287.175 158.959 286.669 159.353C286.162 159.745 285.55 159.941 284.83 159.941ZM284.83 158.89C285.543 158.89 286.097 158.546 286.492 157.859C286.887 157.171 287.084 156.191 287.084 154.918C287.084 154.071 286.993 153.35 286.812 152.755C286.634 152.16 286.376 151.706 286.038 151.394C285.704 151.082 285.301 150.926 284.83 150.926C284.124 150.926 283.571 151.275 283.173 151.972C282.776 152.666 282.577 153.648 282.577 154.918C282.577 155.764 282.666 156.484 282.844 157.076C283.022 157.668 283.279 158.118 283.613 158.427C283.95 158.736 284.356 158.89 284.83 158.89Z" fill="black"/>
<path d="M293.234 159.941C292.514 159.941 291.902 159.745 291.395 159.353C290.889 158.959 290.503 158.387 290.235 157.639C289.968 156.888 289.834 155.981 289.834 154.918C289.834 153.861 289.968 152.958 290.235 152.21C290.506 151.459 290.894 150.886 291.4 150.492C291.91 150.094 292.521 149.895 293.234 149.895C293.947 149.895 294.556 150.094 295.062 150.492C295.572 150.886 295.96 151.459 296.227 152.21C296.498 152.958 296.633 153.861 296.633 154.918C296.633 155.981 296.5 156.888 296.232 157.639C295.965 158.387 295.578 158.959 295.072 159.353C294.566 159.745 293.953 159.941 293.234 159.941ZM293.234 158.89C293.947 158.89 294.501 158.546 294.895 157.859C295.29 157.171 295.487 156.191 295.487 154.918C295.487 154.071 295.397 153.35 295.215 152.755C295.037 152.16 294.779 151.706 294.442 151.394C294.107 151.082 293.705 150.926 293.234 150.926C292.527 150.926 291.975 151.275 291.577 151.972C291.179 152.666 290.98 153.648 290.98 154.918C290.98 155.764 291.069 156.484 291.247 157.076C291.426 157.668 291.682 158.118 292.016 158.427C292.354 158.736 292.759 158.89 293.234 158.89Z" fill="black"/>
<path d="M70.3737 149.482V159.261H69.2278L63.8992 151.583H63.8037V159.261H62.6196V149.482H63.7655L69.1132 157.179H69.2087V149.482H70.3737Z" fill="black"/>
<path d="M80.9938 154.371C80.9938 155.403 80.8076 156.294 80.4352 157.045C80.0627 157.796 79.5518 158.376 78.9025 158.783C78.2531 159.191 77.5115 159.394 76.6775 159.394C75.8435 159.394 75.1018 159.191 74.4525 158.783C73.8031 158.376 73.2922 157.796 72.9198 157.045C72.5474 156.294 72.3612 155.403 72.3612 154.371C72.3612 153.34 72.5474 152.449 72.9198 151.697C73.2922 150.946 73.8031 150.367 74.4525 149.959C75.1018 149.552 75.8435 149.348 76.6775 149.348C77.5115 149.348 78.2531 149.552 78.9025 149.959C79.5518 150.367 80.0627 150.946 80.4352 151.697C80.8076 152.449 80.9938 153.34 80.9938 154.371ZM79.8479 154.371C79.8479 153.525 79.7062 152.81 79.4229 152.227C79.1428 151.645 78.7624 151.204 78.2818 150.905C77.8043 150.606 77.2695 150.456 76.6775 150.456C76.0854 150.456 75.5491 150.606 75.0684 150.905C74.5909 151.204 74.2106 151.645 73.9273 152.227C73.6471 152.81 73.5071 153.525 73.5071 154.371C73.5071 155.218 73.6471 155.933 73.9273 156.515C74.2106 157.098 74.5909 157.538 75.0684 157.838C75.5491 158.137 76.0854 158.287 76.6775 158.287C77.2695 158.287 77.8043 158.137 78.2818 157.838C78.7624 157.538 79.1428 157.098 79.4229 156.515C79.7062 155.933 79.8479 155.218 79.8479 154.371Z" fill="black"/>
<path d="M82.9848 149.482H84.3981L87.7213 157.599H87.8359L91.1591 149.482H92.5724V159.261H91.4647V151.831H91.3692L88.3134 159.261H87.2438L84.1881 151.831H84.0926V159.261H82.9848V149.482Z" fill="black"/>
<path d="M94.9466 159.261V149.482H100.848V150.532H96.1307V153.837H100.543V154.887H96.1307V158.21H100.924V159.261H94.9466Z" fill="black"/>
<path d="M127.396 128.327C126.224 128.327 125.226 128.008 124.402 127.37C123.577 126.727 122.947 125.797 122.511 124.578C122.076 123.354 121.858 121.876 121.858 120.145C121.858 118.423 122.076 116.953 122.511 115.734C122.952 114.511 123.585 113.577 124.409 112.934C125.239 112.286 126.235 111.962 127.396 111.962C128.558 111.962 129.551 112.286 130.375 112.934C131.205 113.577 131.837 114.511 132.273 115.734C132.714 116.953 132.934 118.423 132.934 120.145C132.934 121.876 132.716 123.354 132.281 124.578C131.845 125.797 131.215 126.727 130.391 127.37C129.566 128.008 128.568 128.327 127.396 128.327ZM127.396 126.616C128.558 126.616 129.46 126.056 130.103 124.936C130.746 123.816 131.067 122.219 131.067 120.145C131.067 118.765 130.92 117.591 130.624 116.621C130.334 115.651 129.914 114.913 129.364 114.404C128.819 113.896 128.164 113.642 127.396 113.642C126.245 113.642 125.345 114.21 124.697 115.345C124.049 116.476 123.725 118.076 123.725 120.145C123.725 121.524 123.87 122.696 124.16 123.66C124.451 124.625 124.868 125.358 125.413 125.861C125.962 126.364 126.623 126.616 127.396 126.616Z" fill="black"/>
<path d="M141.085 128.327C139.914 128.327 138.915 128.008 138.091 127.37C137.266 126.727 136.636 125.797 136.201 124.578C135.765 123.354 135.548 121.876 135.548 120.145C135.548 118.423 135.765 116.953 136.201 115.734C136.642 114.511 137.274 113.577 138.099 112.934C138.928 112.286 139.924 111.962 141.085 111.962C142.247 111.962 143.24 112.286 144.064 112.934C144.894 113.577 145.527 114.511 145.962 115.734C146.403 116.953 146.623 118.423 146.623 120.145C146.623 121.876 146.406 123.354 145.97 124.578C145.535 125.797 144.904 126.727 144.08 127.37C143.256 128.008 142.257 128.327 141.085 128.327ZM141.085 126.616C142.247 126.616 143.149 126.056 143.792 124.936C144.435 123.816 144.757 122.219 144.757 120.145C144.757 118.765 144.609 117.591 144.313 116.621C144.023 115.651 143.603 114.913 143.053 114.404C142.509 113.896 141.853 113.642 141.085 113.642C139.934 113.642 139.035 114.21 138.386 115.345C137.738 116.476 137.414 118.076 137.414 120.145C137.414 121.524 137.559 122.696 137.85 123.66C138.14 124.625 138.558 125.358 139.102 125.861C139.652 126.364 140.313 126.616 141.085 126.616Z" fill="black"/>
<path d="M154.775 128.327C153.603 128.327 152.605 128.008 151.78 127.37C150.956 126.727 150.326 125.797 149.89 124.578C149.455 123.354 149.237 121.876 149.237 120.145C149.237 118.423 149.455 116.953 149.89 115.734C150.331 114.511 150.964 113.577 151.788 112.934C152.618 112.286 153.613 111.962 154.775 111.962C155.936 111.962 156.929 112.286 157.754 112.934C158.584 113.577 159.216 114.511 159.652 115.734C160.092 116.953 160.313 118.423 160.313 120.145C160.313 121.876 160.095 123.354 159.659 124.578C159.224 125.797 158.594 126.727 157.769 127.37C156.945 128.008 155.947 128.327 154.775 128.327ZM154.775 126.616C155.936 126.616 156.839 126.056 157.482 124.936C158.125 123.816 158.446 122.219 158.446 120.145C158.446 118.765 158.298 117.591 158.003 116.621C157.712 115.651 157.292 114.913 156.743 114.404C156.198 113.896 155.542 113.642 154.775 113.642C153.624 113.642 152.724 114.21 152.076 115.345C151.428 116.476 151.104 118.076 151.104 120.145C151.104 121.524 151.249 122.696 151.539 123.66C151.83 124.625 152.247 125.358 152.791 125.861C153.341 126.364 154.002 126.616 154.775 126.616Z" fill="black"/>
<path d="M168.464 128.327C167.292 128.327 166.294 128.008 165.47 127.37C164.645 126.727 164.015 125.797 163.58 124.578C163.144 123.354 162.926 121.876 162.926 120.145C162.926 118.423 163.144 116.953 163.58 115.734C164.02 114.511 164.653 113.577 165.477 112.934C166.307 112.286 167.303 111.962 168.464 111.962C169.626 111.962 170.619 112.286 171.443 112.934C172.273 113.577 172.905 114.511 173.341 115.734C173.782 116.953 174.002 118.423 174.002 120.145C174.002 121.876 173.784 123.354 173.349 124.578C172.913 125.797 172.283 126.727 171.459 127.37C170.634 128.008 169.636 128.327 168.464 128.327ZM168.464 126.616C169.626 126.616 170.528 126.056 171.171 124.936C171.814 123.816 172.135 122.219 172.135 120.145C172.135 118.765 171.988 117.591 171.692 116.621C171.402 115.651 170.982 114.913 170.432 114.404C169.888 113.896 169.232 113.642 168.464 113.642C167.313 113.642 166.413 114.21 165.765 115.345C165.117 116.476 164.793 118.076 164.793 120.145C164.793 121.524 164.938 122.696 165.229 123.66C165.519 124.625 165.936 125.358 166.481 125.861C167.03 126.364 167.692 126.616 168.464 126.616Z" fill="black"/>
<path d="M189.867 128.327C188.695 128.327 187.697 128.008 186.872 127.37C186.048 126.727 185.418 125.797 184.982 124.578C184.546 123.354 184.329 121.876 184.329 120.145C184.329 118.423 184.546 116.953 184.982 115.734C185.423 114.511 186.055 113.577 186.88 112.934C187.71 112.286 188.705 111.962 189.867 111.962C191.028 111.962 192.021 112.286 192.846 112.934C193.675 113.577 194.308 114.511 194.744 115.734C195.184 116.953 195.405 118.423 195.405 120.145C195.405 121.876 195.187 123.354 194.751 124.578C194.316 125.797 193.686 126.727 192.861 127.37C192.037 128.008 191.039 128.327 189.867 128.327ZM189.867 126.616C191.028 126.616 191.93 126.056 192.573 124.936C193.216 123.816 193.538 122.219 193.538 120.145C193.538 118.765 193.39 117.591 193.095 116.621C192.804 115.651 192.384 114.913 191.835 114.404C191.29 113.896 190.634 113.642 189.867 113.642C188.716 113.642 187.816 114.21 187.168 115.345C186.52 116.476 186.195 118.076 186.195 120.145C186.195 121.524 186.341 122.696 186.631 123.66C186.921 124.625 187.339 125.358 187.883 125.861C188.433 126.364 189.094 126.616 189.867 126.616Z" fill="black"/>
<path d="M203.556 128.327C202.384 128.327 201.386 128.008 200.562 127.37C199.737 126.727 199.107 125.797 198.671 124.578C198.236 123.354 198.018 121.876 198.018 120.145C198.018 118.423 198.236 116.953 198.671 115.734C199.112 114.511 199.745 113.577 200.569 112.934C201.399 112.286 202.395 111.962 203.556 111.962C204.718 111.962 205.711 112.286 206.535 112.934C207.365 113.577 207.997 114.511 208.433 115.734C208.874 116.953 209.094 118.423 209.094 120.145C209.094 121.876 208.876 123.354 208.441 124.578C208.005 125.797 207.375 126.727 206.551 127.37C205.726 128.008 204.728 128.327 203.556 128.327ZM203.556 126.616C204.718 126.616 205.62 126.056 206.263 124.936C206.906 123.816 207.227 122.219 207.227 120.145C207.227 118.765 207.08 117.591 206.784 116.621C206.494 115.651 206.074 114.913 205.524 114.404C204.979 113.896 204.324 113.642 203.556 113.642C202.405 113.642 201.505 114.21 200.857 115.345C200.209 116.476 199.885 118.076 199.885 120.145C199.885 121.524 200.03 122.696 200.32 123.66C200.611 124.625 201.028 125.358 201.573 125.861C202.122 126.364 202.783 126.616 203.556 126.616Z" fill="black"/>
<path d="M217.245 128.327C216.074 128.327 215.075 128.008 214.251 127.37C213.426 126.727 212.796 125.797 212.361 124.578C211.925 123.354 211.707 121.876 211.707 120.145C211.707 118.423 211.925 116.953 212.361 115.734C212.802 114.511 213.434 113.577 214.259 112.934C215.088 112.286 216.084 111.962 217.245 111.962C218.407 111.962 219.4 112.286 220.224 112.934C221.054 113.577 221.687 114.511 222.122 115.734C222.563 116.953 222.783 118.423 222.783 120.145C222.783 121.876 222.566 123.354 222.13 124.578C221.694 125.797 221.064 126.727 220.24 127.37C219.415 128.008 218.417 128.327 217.245 128.327ZM217.245 126.616C218.407 126.616 219.309 126.056 219.952 124.936C220.595 123.816 220.917 122.219 220.917 120.145C220.917 118.765 220.769 117.591 220.473 116.621C220.183 115.651 219.763 114.913 219.213 114.404C218.669 113.896 218.013 113.642 217.245 113.642C216.094 113.642 215.195 114.21 214.546 115.345C213.898 116.476 213.574 118.076 213.574 120.145C213.574 121.524 213.719 122.696 214.01 123.66C214.3 124.625 214.718 125.358 215.262 125.861C215.812 126.364 216.473 126.616 217.245 126.616Z" fill="black"/>
<path d="M230.935 128.327C229.763 128.327 228.765 128.008 227.94 127.37C227.116 126.727 226.486 125.797 226.05 124.578C225.615 123.354 225.397 121.876 225.397 120.145C225.397 118.423 225.615 116.953 226.05 115.734C226.491 114.511 227.124 113.577 227.948 112.934C228.778 112.286 229.773 111.962 230.935 111.962C232.096 111.962 233.089 112.286 233.914 112.934C234.743 113.577 235.376 114.511 235.812 115.734C236.252 116.953 236.473 118.423 236.473 120.145C236.473 121.876 236.255 123.354 235.819 124.578C235.384 125.797 234.754 126.727 233.929 127.37C233.105 128.008 232.107 128.327 230.935 128.327ZM230.935 126.616C232.096 126.616 232.999 126.056 233.642 124.936C234.285 123.816 234.606 122.219 234.606 120.145C234.606 118.765 234.458 117.591 234.163 116.621C233.872 115.651 233.452 114.913 232.903 114.404C232.358 113.896 231.702 113.642 230.935 113.642C229.784 113.642 228.884 114.21 228.236 115.345C227.588 116.476 227.264 118.076 227.264 120.145C227.264 121.524 227.409 122.696 227.699 123.66C227.99 124.625 228.407 125.358 228.951 125.861C229.501 126.364 230.162 126.616 230.935 126.616Z" fill="black"/>
<path d="M252.656 128.327C251.484 128.327 250.486 128.008 249.662 127.37C248.837 126.727 248.207 125.797 247.771 124.578C247.336 123.354 247.118 121.876 247.118 120.145C247.118 118.423 247.336 116.953 247.771 115.734C248.212 114.511 248.845 113.577 249.669 112.934C250.499 112.286 251.495 111.962 252.656 111.962C253.818 111.962 254.811 112.286 255.635 112.934C256.465 113.577 257.097 114.511 257.533 115.734C257.974 116.953 258.194 118.423 258.194 120.145C258.194 121.876 257.976 123.354 257.541 124.578C257.105 125.797 256.475 126.727 255.651 127.37C254.826 128.008 253.828 128.327 252.656 128.327ZM252.656 126.616C253.818 126.616 254.72 126.056 255.363 124.936C256.006 123.816 256.327 122.219 256.327 120.145C256.327 118.765 256.18 117.591 255.884 116.621C255.594 115.651 255.174 114.913 254.624 114.404C254.079 113.896 253.424 113.642 252.656 113.642C251.505 113.642 250.605 114.21 249.957 115.345C249.309 116.476 248.985 118.076 248.985 120.145C248.985 121.524 249.13 122.696 249.42 123.66C249.711 124.625 250.128 125.358 250.673 125.861C251.222 126.364 251.883 126.616 252.656 126.616Z" fill="black"/>
<path d="M266.345 128.327C265.174 128.327 264.175 128.008 263.351 127.37C262.526 126.727 261.896 125.797 261.461 124.578C261.025 123.354 260.808 121.876 260.808 120.145C260.808 118.423 261.025 116.953 261.461 115.734C261.902 114.511 262.534 113.577 263.359 112.934C264.188 112.286 265.184 111.962 266.345 111.962C267.507 111.962 268.5 112.286 269.324 112.934C270.154 113.577 270.787 114.511 271.222 115.734C271.663 116.953 271.883 118.423 271.883 120.145C271.883 121.876 271.666 123.354 271.23 124.578C270.795 125.797 270.165 126.727 269.34 127.37C268.516 128.008 267.517 128.327 266.345 128.327ZM266.345 126.616C267.507 126.616 268.409 126.056 269.052 124.936C269.695 123.816 270.017 122.219 270.017 120.145C270.017 118.765 269.869 117.591 269.573 116.621C269.283 115.651 268.863 114.913 268.313 114.404C267.769 113.896 267.113 113.642 266.345 113.642C265.194 113.642 264.295 114.21 263.646 115.345C262.998 116.476 262.674 118.076 262.674 120.145C262.674 121.524 262.819 122.696 263.11 123.66C263.4 124.625 263.818 125.358 264.362 125.861C264.912 126.364 265.573 126.616 266.345 126.616Z" fill="black"/>
<path d="M280.035 128.327C278.863 128.327 277.865 128.008 277.04 127.37C276.216 126.727 275.586 125.797 275.15 124.578C274.715 123.354 274.497 121.876 274.497 120.145C274.497 118.423 274.715 116.953 275.15 115.734C275.591 114.511 276.224 113.577 277.048 112.934C277.878 112.286 278.873 111.962 280.035 111.962C281.196 111.962 282.189 112.286 283.014 112.934C283.844 113.577 284.476 114.511 284.912 115.734C285.352 116.953 285.573 118.423 285.573 120.145C285.573 121.876 285.355 123.354 284.919 124.578C284.484 125.797 283.854 126.727 283.029 127.37C282.205 128.008 281.207 128.327 280.035 128.327ZM280.035 126.616C281.196 126.616 282.099 126.056 282.742 124.936C283.385 123.816 283.706 122.219 283.706 120.145C283.706 118.765 283.558 117.591 283.263 116.621C282.972 115.651 282.552 114.913 282.003 114.404C281.458 113.896 280.802 113.642 280.035 113.642C278.884 113.642 277.984 114.21 277.336 115.345C276.688 116.476 276.364 118.076 276.364 120.145C276.364 121.524 276.509 122.696 276.799 123.66C277.09 124.625 277.507 125.358 278.051 125.861C278.601 126.364 279.262 126.616 280.035 126.616Z" fill="black"/>
<path d="M293.724 128.327C292.552 128.327 291.554 128.008 290.73 127.37C289.905 126.727 289.275 125.797 288.84 124.578C288.404 123.354 288.186 121.876 288.186 120.145C288.186 118.423 288.404 116.953 288.84 115.734C289.28 114.511 289.913 113.577 290.737 112.934C291.567 112.286 292.563 111.962 293.724 111.962C294.886 111.962 295.879 112.286 296.703 112.934C297.533 113.577 298.165 114.511 298.601 115.734C299.042 116.953 299.262 118.423 299.262 120.145C299.262 121.876 299.044 123.354 298.609 124.578C298.173 125.797 297.543 126.727 296.719 127.37C295.894 128.008 294.896 128.327 293.724 128.327ZM293.724 126.616C294.886 126.616 295.788 126.056 296.431 124.936C297.074 123.816 297.395 122.219 297.395 120.145C297.395 118.765 297.248 117.591 296.952 116.621C296.662 115.651 296.242 114.913 295.692 114.404C295.148 113.896 294.492 113.642 293.724 113.642C292.573 113.642 291.673 114.21 291.025 115.345C290.377 116.476 290.053 118.076 290.053 120.145C290.053 121.524 290.198 122.696 290.489 123.66C290.779 124.625 291.196 125.358 291.741 125.861C292.29 126.364 292.952 126.616 293.724 126.616Z" fill="black"/>
</svg>
