<svg width="171" height="171" viewBox="0 0 171 171" fill="none" xmlns="http://www.w3.org/2000/svg">
<circle cx="85.5" cy="85.5" r="85.5" fill="#F3F1F1"/>
<path d="M127.184 59.9141H121.747V54.4771C121.743 53.0361 121.169 51.6558 120.15 50.6372C119.132 49.6185 117.751 49.0441 116.31 49.04H51.0659C49.625 49.0441 48.2447 49.6185 47.226 50.6372C46.2074 51.6558 45.6329 53.0361 45.6289 54.4771V85.2869C45.6289 86.2877 46.4404 87.0992 47.4413 87.0992C48.4421 87.0992 49.2536 86.2877 49.2536 85.2869V54.4771C49.2536 53.4762 50.0651 52.6647 51.0659 52.6647H116.31C116.791 52.6647 117.252 52.8557 117.592 53.1955C117.932 53.5353 118.123 53.9965 118.123 54.4771V97.9733C118.123 98.4539 117.932 98.9151 117.592 99.2549C117.252 99.5947 116.791 99.7857 116.31 99.7857H76.4388C75.4379 99.7857 74.6264 100.597 74.6264 101.598C74.6264 102.599 75.4379 103.41 76.4388 103.41H116.31C117.751 103.406 119.132 102.832 120.15 101.813C121.169 100.795 121.743 99.4143 121.747 97.9733V92.5363H128.997V108.847C128.997 109.328 128.806 109.789 128.466 110.129C128.126 110.469 127.665 110.66 127.184 110.66H74.6264C73.6256 110.66 72.814 111.471 72.814 112.472C72.814 113.473 73.6256 114.284 74.6264 114.284H127.184C128.625 114.28 130.006 113.706 131.024 112.687C132.043 111.669 132.617 110.288 132.621 108.847V65.3512C132.617 63.9102 132.043 62.5299 131.024 61.5113C130.006 60.4926 128.625 59.9182 127.184 59.9141L127.184 59.9141ZM128.997 78.0375H121.747V63.5388H127.184C127.665 63.5388 128.126 63.7297 128.466 64.0695C128.806 64.4093 128.997 64.8705 128.997 65.3511V78.0375Z" fill="#00A19D"/>
<path d="M54.6952 88.6435C45.6858 88.6435 38.3496 95.9797 38.3496 104.989C38.3496 113.998 45.6858 121.335 54.6952 121.335C63.7207 121.335 71.0408 113.998 71.0408 104.989C71.0408 95.9797 63.7207 88.6435 54.6952 88.6435ZM64.509 100.291L52.8933 111.891C52.6037 112.197 52.1854 112.357 51.7993 112.357C51.4132 112.357 51.011 112.197 50.7053 111.891L44.8975 106.083C44.2861 105.472 44.2861 104.49 44.8975 103.879C45.5088 103.268 46.4902 103.268 47.1016 103.879L51.7993 108.577L62.3049 98.0712C62.9163 97.4598 63.8976 97.4598 64.509 98.0712C65.1203 98.6986 65.1203 99.68 64.509 100.291Z" fill="#00A19D"/>
</svg>