<svg width="544" height="544" viewBox="0 0 544 544" fill="none" xmlns="http://www.w3.org/2000/svg">
<circle cx="272" cy="272" r="272" fill="#F3F1F1"/>
<path d="M84 271.853C84 373.223 166.474 455.688 267.844 455.688C297.035 455.688 326.226 448.612 352.278 435.241C356.321 433.157 357.917 428.2 355.842 424.156C353.759 420.113 348.802 418.517 344.758 420.592C321.03 432.775 294.428 439.213 267.844 439.213C175.563 439.213 100.466 364.134 100.466 271.835C100.466 179.536 175.554 104.458 267.844 104.458C352.393 104.458 423.81 167.637 433.963 251.414C434.513 255.927 438.618 259.155 443.123 258.597C447.636 258.047 450.846 253.959 450.305 249.446C439.15 157.404 360.702 88 267.835 88C166.474 88.0089 84 170.483 84 271.844V271.853Z" fill="#00A19D"/>
<path d="M375.732 312.456C379.589 312.456 382.825 309.796 383.721 306.214C383.721 306.214 388.749 289.047 388.678 271.853C388.447 205.216 334.472 151.002 267.835 151.002C201.198 151.002 147.001 205.216 147.001 271.853C147.001 338.49 201.207 392.696 267.844 392.696C268.944 392.696 270.052 392.66 271.143 392.483C275.629 391.756 278.352 387.526 277.616 383.03C276.889 378.552 272.331 375.449 267.835 376.238C210.287 376.238 163.459 329.419 163.459 271.862C163.459 214.305 210.278 167.477 267.835 167.477C325.392 167.477 372.211 214.305 372.211 271.862C372.211 281.979 370.81 291.822 368.052 301.133C367.716 302.17 367.485 303.367 367.485 304.236C367.485 308.767 371.174 312.456 375.723 312.456H375.732Z" fill="#00A19D"/>
<path d="M195.204 222.312C189.902 230.088 185.894 238.592 183.313 247.628C182.063 251.999 184.599 256.557 188.971 257.798C189.724 258.02 190.487 258.118 191.241 258.118C194.823 258.118 198.122 255.759 199.15 252.15C201.243 244.817 204.488 237.9 208.798 231.596C211.36 227.845 210.403 222.72 206.643 220.157C202.892 217.577 197.767 218.552 195.204 222.312Z" fill="#00A19D"/>
<path d="M219.411 198.45C215.616 200.96 214.57 206.076 217.088 209.853C218.667 212.247 221.291 213.551 223.969 213.551C225.521 213.551 227.099 213.116 228.5 212.185C240.178 204.471 253.79 200.383 267.862 200.383C272.411 200.383 276.1 196.694 276.1 192.145C276.1 187.597 272.42 183.908 267.862 183.908C250.544 183.908 233.794 188.936 219.42 198.432L219.411 198.45Z" fill="#00A19D"/>
<path d="M300.901 384.476C311.507 394.008 324.355 401.004 338.525 404.418C339.758 404.719 341.026 404.764 342.294 404.87C348.847 405.438 354.424 399.975 356.171 397.111C370.571 373.498 372.85 344.174 362.263 318.654C351.684 293.134 329.312 274.025 302.427 267.543C295.741 265.912 288.363 268.989 284.781 274.85C270.389 298.464 268.323 327.708 278.689 353.307C286.111 371.645 300.316 384.041 300.901 384.476ZM298.56 283.549C320.347 288.807 338.472 304.28 347.055 324.95C354.202 342.17 354.007 361.492 347.046 378.543L323.096 320.827C321.358 316.624 316.534 314.628 312.34 316.375C308.137 318.113 306.151 322.928 307.889 327.122L331.83 384.839C314.841 377.736 301.034 364.223 293.887 347.003C285.313 326.333 287.157 302.56 298.552 283.54L298.56 283.549Z" fill="#00A19D"/>
<path d="M382.648 455.91C384.945 455.91 387.241 454.943 388.864 453.081C391.844 449.641 391.48 444.445 388.048 441.456C383.73 437.714 381.256 432.527 381.052 426.843C380.875 421.966 382.418 417.346 385.406 413.604L385.433 413.569C386.452 413.915 387.41 414.402 388.492 414.571C394.362 415.493 400.365 415.954 406.324 415.954C436.96 415.954 465.761 404.028 487.414 382.365C513.236 356.535 525.277 319.55 519.62 283.434C518.352 275.364 511.835 268.838 503.748 267.57C497.86 266.648 491.857 266.187 485.907 266.187C455.288 266.187 426.497 278.104 404.825 299.767C379.004 325.597 366.962 362.582 372.619 398.699C372.814 399.922 373.338 401.013 373.754 402.148C367.68 409.118 364.284 418.136 364.603 427.419C364.958 437.555 369.578 447.211 377.257 453.879C378.818 455.236 380.742 455.901 382.657 455.901L382.648 455.91ZM416.459 311.427C435.009 292.886 459.678 282.671 485.898 282.671C491.006 282.671 496.158 283.07 501.194 283.859C502.24 284.019 503.189 284.959 503.349 286.005C508.199 316.943 497.887 348.625 475.772 370.74C455.847 390.665 428.261 400.871 400.427 399.222C403.052 396.508 464.431 334.411 464.431 334.411C467.641 331.184 467.632 325.97 464.422 322.76C461.203 319.559 455.989 319.559 452.788 322.769C452.788 322.769 390.877 385.469 388.137 388.271C386.027 359.904 396.224 331.662 416.468 311.418L416.459 311.427Z" fill="#00A19D"/>
</svg>
