<svg width="171" height="171" viewBox="0 0 171 171" fill="none" xmlns="http://www.w3.org/2000/svg">
<circle cx="85.5" cy="85.5" r="85.5" fill="#F3F1F1"/>
<path d="M98.2 74H83.8C82.806 74 82 74.8955 82 76C82 77.1045 82.806 78 83.8 78H98.2C99.194 78 100 77.1045 100 76C100 74.8955 99.194 74 98.2 74Z" fill="#00A19D"/>
<path d="M112.333 78C113.254 78 114 77.1045 114 76C114 74.8955 113.254 74 112.333 74H105.667C104.746 74 104 74.8955 104 76C104 77.1045 104.746 78 105.667 78H112.333Z" fill="#00A19D"/>
<path d="M67 76C67 76.5304 67.1932 77.0393 67.5369 77.4143C67.8807 77.7893 68.3472 78 68.8333 78H76.1667C77.1791 78 78 77.1045 78 76C78 74.8955 77.1791 74 76.1667 74H68.8333C67.8209 74 67 74.8955 67 76Z" fill="#00A19D"/>
<path d="M54.8333 78H62.1667C63.1791 78 64 77.1045 64 76C64 74.8955 63.1791 74 62.1667 74H54.8333C53.8209 74 53 74.8955 53 76C53 77.1045 53.8209 78 54.8333 78Z" fill="#00A19D"/>
<path d="M58.4 56H65.6C68.582 56 71 59.1063 71 61.625V65.375C71 68.4813 68.582 71 65.6 71H58.4C55.418 71 53 67.8937 53 65.375V61.625C53 58.5187 55.418 56 58.4 56Z" fill="#00A19D"/>
<path d="M98.0697 81C95.7768 80.9967 93.6249 82.1769 92.2996 84.1641C90.9735 86.152 90.6394 88.6991 91.4029 90.9969C92.1656 93.2938 93.9322 95.0541 96.1386 95.7169C98.345 96.3796 100.717 95.8633 102.5 94.3307C103.889 95.5243 105.653 96.1144 107.435 95.9813C109.218 95.8483 110.886 95.002 112.104 93.6133C113.322 92.2255 114 90.3982 114 88.4999C114 86.6016 113.322 84.7742 112.104 83.3865C110.886 81.9979 109.218 81.1516 107.435 81.0185C105.653 80.8854 103.889 81.4755 102.5 82.6691C101.244 81.5944 99.6819 81.0059 98.0698 81.0001L98.0697 81ZM100.364 91.3307C99.7291 91.9217 98.9136 92.2481 98.0697 92.2498C96.8082 92.2498 95.6428 91.535 95.0125 90.3748C94.3821 89.2147 94.3821 87.785 95.0125 86.6249C95.6428 85.4648 96.8082 84.75 98.0697 84.75C98.9136 84.7516 99.7291 85.0781 100.364 85.669C99.6582 87.482 99.6582 89.5177 100.364 91.3308V91.3307Z" fill="#00A19D"/>
<path d="M127.184 59.9141H121.747V54.4771C121.743 53.0361 121.169 51.6558 120.15 50.6372C119.132 49.6185 117.751 49.0441 116.31 49.04H51.0659C49.625 49.0441 48.2447 49.6185 47.226 50.6372C46.2074 51.6558 45.6329 53.0361 45.6289 54.4771V85.2869C45.6289 86.2877 46.4404 87.0992 47.4413 87.0992C48.4421 87.0992 49.2536 86.2877 49.2536 85.2869V54.4771C49.2536 53.4762 50.0651 52.6647 51.0659 52.6647H116.31C116.791 52.6647 117.252 52.8557 117.592 53.1955C117.932 53.5353 118.123 53.9965 118.123 54.4771V97.9733C118.123 98.4539 117.932 98.9151 117.592 99.2549C117.252 99.5947 116.791 99.7857 116.31 99.7857H76.4388C75.4379 99.7857 74.6264 100.597 74.6264 101.598C74.6264 102.599 75.4379 103.41 76.4388 103.41H116.31C117.751 103.406 119.132 102.832 120.15 101.813C121.169 100.795 121.743 99.4143 121.747 97.9733V92.5363H128.997V108.847C128.997 109.328 128.806 109.789 128.466 110.129C128.126 110.469 127.665 110.66 127.184 110.66H74.6264C73.6256 110.66 72.814 111.471 72.814 112.472C72.814 113.473 73.6256 114.284 74.6264 114.284H127.184C128.625 114.28 130.006 113.706 131.024 112.687C132.043 111.669 132.617 110.288 132.621 108.847V65.3512C132.617 63.9102 132.043 62.5299 131.024 61.5113C130.006 60.4926 128.625 59.9182 127.184 59.9141L127.184 59.9141ZM128.997 78.0375H121.747V63.5388H127.184C127.665 63.5388 128.126 63.7297 128.466 64.0695C128.806 64.4093 128.997 64.8705 128.997 65.3511V78.0375Z" fill="#00A19D"/>
<path d="M54.6952 88.6435C45.6858 88.6435 38.3496 95.9797 38.3496 104.989C38.3496 113.998 45.6858 121.335 54.6952 121.335C63.7207 121.335 71.0408 113.998 71.0408 104.989C71.0408 95.9797 63.7207 88.6435 54.6952 88.6435ZM64.509 100.291L52.8933 111.891C52.6037 112.197 52.1854 112.357 51.7993 112.357C51.4132 112.357 51.011 112.197 50.7053 111.891L44.8975 106.083C44.2861 105.472 44.2861 104.49 44.8975 103.879C45.5088 103.268 46.4902 103.268 47.1016 103.879L51.7993 108.577L62.3049 98.0712C62.9163 97.4598 63.8976 97.4598 64.509 98.0712C65.1203 98.6986 65.1203 99.68 64.509 100.291Z" fill="#00A19D"/>
</svg>