<svg width="95" height="73" viewBox="0 0 95 73" fill="none" xmlns="http://www.w3.org/2000/svg">
<path d="M89.1843 10.9141H83.7473V5.47705C83.7433 4.03608 83.1688 2.6558 82.1502 1.63716C81.1316 0.618518 79.7513 0.044078 78.3103 0.0400391H13.0659C11.625 0.0440844 10.2447 0.618539 9.22603 1.63716C8.20739 2.6558 7.63295 4.03608 7.62891 5.47705V36.2869C7.62891 37.2877 8.44042 38.0992 9.44125 38.0992C10.4421 38.0992 11.2536 37.2877 11.2536 36.2869V5.47705C11.2536 4.47622 12.0651 3.66471 13.0659 3.66471H78.3103C78.7909 3.66471 79.2521 3.85565 79.5919 4.19546C79.9317 4.53528 80.1227 4.99646 80.1227 5.47705V48.9733C80.1227 49.4539 79.9317 49.9151 79.5919 50.2549C79.2521 50.5947 78.7909 50.7857 78.3103 50.7857H38.4388C37.4379 50.7857 36.6264 51.5972 36.6264 52.598C36.6264 53.5988 37.4379 54.4103 38.4388 54.4103H78.3103C79.7513 54.4063 81.1316 53.8318 82.1502 52.8132C83.1689 51.7946 83.7433 50.4143 83.7473 48.9733V43.5363H90.9967V59.8474C90.9967 60.328 90.8058 60.7892 90.466 61.129C90.1262 61.4688 89.665 61.6597 89.1844 61.6597H36.6264C35.6256 61.6597 34.814 62.4713 34.814 63.4721C34.814 64.4729 35.6256 65.2844 36.6264 65.2844H89.1844C90.6253 65.2804 92.0056 64.7059 93.0243 63.6873C94.0429 62.6687 94.6173 61.2884 94.6214 59.8474V16.3512C94.6173 14.9102 94.0429 13.5299 93.0243 12.5113C92.0056 11.4926 90.6253 10.9182 89.1844 10.9141L89.1843 10.9141ZM90.9967 29.0375H83.7473V14.5388H89.1843C89.6649 14.5388 90.1261 14.7297 90.4659 15.0695C90.8057 15.4093 90.9967 15.8705 90.9967 16.3511V29.0375Z" fill="#00A19D"/>
<path d="M16.6952 39.6435C7.68582 39.6435 0.349609 46.9797 0.349609 55.9891C0.349609 64.9985 7.68582 72.3347 16.6952 72.3347C25.7207 72.3347 33.0408 64.9985 33.0408 55.9891C33.0408 46.9797 25.7207 39.6435 16.6952 39.6435ZM26.509 51.2913L14.8933 62.8909C14.6037 63.1966 14.1854 63.3575 13.7993 63.3575C13.4132 63.3575 13.011 63.1966 12.7053 62.8909L6.8975 57.0831C6.28615 56.4717 6.28615 55.4903 6.8975 54.879C7.50885 54.2676 8.49023 54.2676 9.10158 54.879L13.7993 59.5767L24.3049 49.0712C24.9163 48.4598 25.8976 48.4598 26.509 49.0712C27.1203 49.6986 27.1203 50.68 26.509 51.2913Z" fill="#00A19D"/>
</svg>
