<svg width="544" height="544" viewBox="0 0 544 544" fill="none" xmlns="http://www.w3.org/2000/svg">
<circle cx="272" cy="272" r="272" fill="#F3F1F1"/>
<path d="M404.607 191.498H387.305V174.249C387.292 169.678 385.464 165.299 382.222 162.067C378.981 158.835 374.588 157.013 370.002 157H162.372C157.787 157.013 153.394 158.835 150.153 162.067C146.911 165.299 145.083 169.678 145.07 174.249V271.995C145.07 275.17 147.653 277.745 150.838 277.745C154.022 277.745 156.605 275.17 156.605 271.995V174.249C156.605 171.074 159.188 168.499 162.373 168.499H370.003C371.532 168.499 373 169.105 374.081 170.183C375.162 171.261 375.77 172.724 375.77 174.249V312.243C375.77 313.768 375.162 315.231 374.081 316.309C373 317.387 371.532 317.993 370.003 317.993H243.118C239.933 317.993 237.35 320.568 237.35 323.743C237.35 326.918 239.933 329.492 243.118 329.492H370.003C374.588 329.48 378.981 327.657 382.222 324.425C385.464 321.194 387.292 316.815 387.305 312.243V294.994H410.375V346.742C410.375 348.266 409.767 349.73 408.686 350.808C407.605 351.886 406.137 352.491 404.607 352.491H237.35C234.165 352.491 231.582 355.066 231.582 358.241C231.582 361.416 234.165 363.991 237.35 363.991H404.607C409.193 363.978 413.586 362.156 416.827 358.924C420.069 355.692 421.897 351.313 421.91 346.742V208.748C421.897 204.176 420.069 199.797 416.827 196.566C413.586 193.334 409.193 191.511 404.607 191.499L404.607 191.498ZM410.375 248.996H387.305V202.998H404.607C406.137 202.998 407.604 203.604 408.686 204.682C409.767 205.76 410.375 207.223 410.375 208.748V248.996Z" fill="#00A19D"/>
<path d="M312.327 237.496H266.187C263.002 237.496 260.42 240.071 260.42 243.246C260.42 246.421 263.002 248.996 266.187 248.996H312.327C315.512 248.996 318.095 246.421 318.095 243.246C318.095 240.071 315.512 237.496 312.327 237.496Z" fill="#00A19D"/>
<path d="M358.467 248.996C361.652 248.996 364.235 246.421 364.235 243.246C364.235 240.071 361.652 237.496 358.467 237.496H335.397C332.212 237.496 329.63 240.071 329.63 243.246C329.63 246.421 332.212 248.996 335.397 248.996H358.467Z" fill="#00A19D"/>
<path d="M214.28 243.246C214.28 244.771 214.887 246.234 215.969 247.312C217.05 248.39 218.518 248.996 220.047 248.996H243.117C246.302 248.996 248.885 246.421 248.885 243.246C248.885 240.071 246.302 237.496 243.117 237.496H220.047C216.862 237.496 214.28 240.071 214.28 243.246Z" fill="#00A19D"/>
<path d="M173.908 248.996H196.978C200.163 248.996 202.745 246.421 202.745 243.246C202.745 240.071 200.163 237.496 196.978 237.496H173.908C170.723 237.496 168.14 240.071 168.14 243.246C168.14 246.421 170.723 248.996 173.908 248.996Z" fill="#00A19D"/>
<path d="M185.443 179.999H208.513C218.068 179.999 225.815 189.525 225.815 197.248V208.748C225.815 218.273 218.068 225.997 208.513 225.997H185.443C175.888 225.997 168.14 216.471 168.14 208.748V197.248C168.14 187.723 175.888 179.999 185.443 179.999Z" fill="#00A19D"/>
<path d="M173.907 283.495C160.14 283.495 146.937 288.947 137.204 298.652C127.468 308.354 122 321.517 122 335.242C122 348.967 127.469 362.13 137.204 371.833C146.937 381.539 160.14 386.99 173.907 386.99C187.675 386.99 200.878 381.538 210.611 371.833C220.347 362.13 225.815 348.967 225.815 335.242C225.794 321.525 220.318 308.375 210.587 298.675C200.857 288.975 187.667 283.516 173.907 283.495V283.495ZM168.14 358.241C168.14 355.916 169.546 353.819 171.701 352.93C173.856 352.04 176.335 352.53 177.986 354.175C179.636 355.821 180.128 358.293 179.235 360.441C178.344 362.59 176.24 363.991 173.907 363.991C170.723 363.991 168.14 361.416 168.14 358.241ZM179.675 340.992C179.675 344.167 177.092 346.742 173.907 346.742C170.723 346.742 168.14 344.167 168.14 340.992V312.243C168.14 309.068 170.723 306.494 173.907 306.494C177.092 306.494 179.675 309.068 179.675 312.243V340.992Z" fill="#00A19D"/>
<path d="M312.327 260.496C304.835 260.485 297.803 264.105 293.472 270.198C289.139 276.295 288.047 284.106 290.542 291.152C293.035 298.195 298.807 303.594 306.017 305.626C313.227 307.659 320.979 306.075 326.803 301.375C331.342 305.036 337.107 306.845 342.931 306.437C348.756 306.029 354.206 303.434 358.187 299.175C362.168 294.92 364.382 289.316 364.382 283.495C364.382 277.673 362.168 272.069 358.187 267.814C354.207 263.556 348.756 260.96 342.931 260.552C337.107 260.144 331.342 261.954 326.803 265.614C322.701 262.318 317.595 260.514 312.327 260.496L312.327 260.496ZM319.825 292.176C317.75 293.988 315.085 294.989 312.327 294.994C308.205 294.994 304.397 292.802 302.337 289.244C300.277 285.687 300.277 281.302 302.337 277.745C304.397 274.187 308.205 271.995 312.327 271.995C315.085 272 317.75 273.001 319.825 274.814C317.518 280.373 317.518 286.616 319.825 292.176V292.176Z" fill="#00A19D"/>
</svg>
