<svg width="83" height="83" viewBox="0 0 83 83" fill="none" xmlns="http://www.w3.org/2000/svg">
<path d="M24.6954 51.8434L25.2804 53.4647C26.9518 58.0946 31.3811 61.2034 36.3118 61.2034C37.1642 61.2034 37.8662 60.5014 37.8662 59.649C37.8662 58.7966 37.1642 58.0946 36.3118 58.0946C32.7015 58.0946 29.4422 55.8047 28.2054 52.395L27.5869 50.6901C34.0888 41.982 35.7936 30.7834 32.1332 20.5041C28.5564 10.4756 20.2828 2.85384 9.98678 0.1127C8.58278 -0.255014 6.99492 0.296556 6.14249 1.48327C-0.0919339 10.1246 -1.67979 21.273 1.89707 31.3016C5.57421 41.631 14.0651 49.2527 24.6954 51.8434ZM8.66635 3.32184C8.74992 3.20484 8.88364 3.13799 9.11764 3.13799C9.13435 3.13799 9.16778 3.13799 9.1845 3.13799C18.4944 5.6117 25.9824 12.5147 29.2082 21.5738C32.2836 30.1817 31.1304 39.4916 26.2665 47.0798L22.6729 37.1348L26.6175 29.0117C26.9852 28.2428 26.6676 27.3068 25.8988 26.9391C25.1299 26.5714 24.1939 26.889 23.8262 27.6578L21.2021 33.0566L19.1629 27.4071L22.4724 20.4206C22.8401 19.6517 22.5058 18.7157 21.7369 18.348C20.9681 17.9803 20.0321 18.3146 19.6644 19.0834L17.6754 23.2787L14.5498 14.6207C14.2656 13.8184 13.3631 13.4006 12.5608 13.6847C11.7585 13.9688 11.3406 14.8714 11.6248 15.6737L15.1181 25.3513L9.53549 22.7104C8.76664 22.3427 7.83064 22.677 7.46292 23.4458C7.09521 24.2147 7.42949 25.1507 8.19835 25.5184L16.6391 29.5131L18.7284 35.2796L14.5665 33.3073C13.7976 32.9396 12.8616 33.2738 12.4939 34.0427C12.1262 34.8116 12.4605 35.7476 13.2294 36.1153L20.2159 39.4247L23.3749 48.1997C14.7336 45.4251 7.89749 38.9066 4.80535 30.2486C1.57949 21.2061 3.01692 11.1274 8.66635 3.32184Z" fill="#00A19D"/>
<path d="M36.6126 69.5104C36.7129 69.3098 36.7463 69.0758 36.8132 68.8585L39.337 68.424V81.3775C39.337 81.8957 39.7549 82.3135 40.273 82.3303L41.2592 82.347C50.3685 82.347 58.993 79.422 66.2136 73.8895C76.4762 66.0506 82.3429 54.1333 82.3429 41.2298C82.3429 40.3273 82.2092 38.0541 82.2092 38.004C81.9919 35.0288 81.4403 32.037 80.5378 29.1287C76.1419 14.7878 64.258 4.00712 49.5662 1.01526C47.9449 0.647546 41.7272 0.162832 41.0753 0.146118C40.1059 0.146118 39.337 0.93169 39.337 1.90112V65.2817L36.295 65.7998C36.1613 65.616 36.061 65.4154 35.8939 65.265C30.796 60.3008 23.6089 58.0778 16.5889 59.2645C9.58562 60.468 3.51833 64.9808 0.376049 71.3657C-0.325951 72.7864 -0.0250932 74.4745 1.11148 75.5944C5.30676 79.6727 10.8058 81.9124 16.6223 81.9124C17.8759 81.9124 19.1629 81.7954 20.4165 81.5948C27.403 80.3914 33.4703 75.8785 36.6126 69.5104ZM42.4459 32.388C43.8332 31.7027 44.9698 31.0174 45.9392 30.2653C49.1149 27.8584 52.8589 28.4601 54.9983 30.048C55.8675 30.6998 57.7896 32.5217 56.7366 35.3464C55.6502 38.2547 54.2629 39.3077 52.792 40.4108C50.8866 41.8483 48.9143 43.3358 48.5132 48.0827C48.3293 50.3057 47.4268 52.0941 45.9559 53.097C44.953 53.7823 43.7496 54.0497 42.4626 53.916L42.4459 32.388ZM64.9768 70.8977C64.2915 70.6637 63.7733 70.4631 63.322 70.2458C61.4333 69.3433 59.7619 66.8361 59.4276 64.4125C59.2772 63.2927 59.3608 61.7215 60.6143 60.6685C64.609 57.2755 67.1496 52.3114 70.1749 44.8568C71.5622 41.4304 75.9413 40.2771 79.2173 39.9094C79.234 40.3607 79.234 40.812 79.234 41.2298C79.2508 52.8797 74.0526 63.6437 64.9768 70.8977ZM76.0583 25.9697C75.3396 25.3011 74.203 24.3317 72.2642 22.8441C66.0632 18.1307 63.2552 17.9134 61.216 17.7463C60.7146 17.7128 60.2968 17.6794 59.8288 17.5123C56.7032 16.4425 55.366 15.5065 56.1349 13.1331C57.2213 9.92397 54.8479 7.90155 53.1263 6.43069C52.2739 5.71198 51.6388 5.12698 51.2209 4.55869C62.3526 7.58398 71.4619 15.4731 76.0583 25.9697ZM47.6608 3.80655C47.9115 6.07969 49.6665 7.58397 51.1206 8.82083C53.026 10.4421 53.5609 11.1107 53.1932 12.1804C51.3212 17.8967 56.77 19.7687 58.8259 20.4707C58.8259 20.4707 60.3636 20.805 60.982 20.8551C62.6535 20.9888 64.9266 21.1727 70.3922 25.3178C73.6348 27.8083 74.4705 28.7108 74.8549 29.1454C75.5235 29.8641 77.7799 30.7333 77.7799 30.7333C78.3482 32.7223 78.7493 34.7614 78.9833 36.8005C74.9218 37.2518 69.3058 38.7895 67.3168 43.6868C64.4753 50.6901 62.1353 55.32 58.6253 58.2951C56.8202 59.8328 56.0179 62.1394 56.3689 64.8137C56.8369 68.307 59.1435 71.7 62.0016 73.0538C62.0016 73.0538 52.8422 79.1378 42.4459 79.2214V57.0081C42.6632 57.0248 42.8805 57.0583 43.0978 57.0583C44.7692 57.0583 46.3403 56.5735 47.7109 55.6375C49.9506 54.0998 51.3379 51.5091 51.6053 48.3334C51.8895 44.9738 52.9926 44.1381 54.664 42.8845C56.2686 41.6811 58.2409 40.1935 59.6449 36.4328C60.865 33.1568 59.7953 29.7638 56.8536 27.5575C53.8116 25.3011 48.5132 24.4153 44.0505 27.8083C43.5825 28.176 43.0476 28.527 42.4626 28.878V3.27169C43.0811 3.2884 46.5576 3.60598 47.6608 3.80655ZM19.8816 78.5194C13.8311 79.5557 7.66348 77.6335 3.26762 73.3547C3.10048 73.2043 3.05033 72.9201 3.15062 72.7195C5.85833 67.2373 11.0899 63.3595 17.107 62.3233C18.1935 62.1394 19.2799 62.0391 20.3663 62.0391C24.8458 62.0391 29.0912 63.5935 32.5343 66.435L14.8506 69.4603C13.9982 69.6107 13.4299 70.413 13.5803 71.2487C13.714 72.0008 14.3659 72.5357 15.1181 72.5357C15.2016 72.5357 15.2852 72.519 15.3855 72.519L33.0525 69.5104C30.1776 74.2405 25.3806 77.5834 19.8816 78.5194Z" fill="#00A19D"/>
</svg>